<?xml version="1.0" encoding="UTF-8"?>
<svg xmlns="http://www.w3.org/2000/svg" viewBox="0 0 566.93 566.93">
  <defs>
    <style>
      .cls-1 {
        stroke: #231f20;
        stroke-miterlimit: 10;
        stroke-width: .25px;
      }

      .cls-1, .cls-2, .cls-3 {
        fill: #231f20;
      }

      .cls-2, .cls-4 {
        fill-rule: evenodd;
      }

      .cls-2, .cls-4, .cls-5, .cls-6, .cls-3, .cls-7 {
        stroke-width: 0px;
      }

      .cls-4, .cls-7 {
        fill: #fff;
      }

      .cls-5 {
        fill: #275138;
      }

      .cls-6 {
        fill: #0d1635;
      }
    </style>
  </defs>
  <g id="blätter_und_äste_merged_" data-name="blätter und äste (merged)">
    <g id="blätter_dahinter" data-name="blätter dahinter">
      <g>
        <path class="cls-7" d="M227.95,433.63c-.26-.2-6.49-4.9-7.93-9.09-1.66-4.85-2.21-14.2-2.31-16.02-.08-1.63.01-3.42.1-5.15.13-2.41.29-5.42-.34-6.21-.17-.21-.53-.66-.25-1.24l.27-.57h.63c1.68,0,9.89,12.04,11.14,15.77,1.78,5.33,1.71,9.43,1.65,12.73-.01.57-.02,1.11-.02,1.64,0,3.74-1.35,7.53-1.41,7.69l-.46,1.27-1.08-.81Z"/>
        <path class="cls-3" d="M218.13,396.35c.11,0,8.31,9.46,10.19,15.09,2.03,6.07,1.58,10.45,1.58,14.05s-1.35,7.35-1.35,7.35c0,0-6.23-4.67-7.58-8.62-1.35-3.95-2.03-11.38-2.25-15.75-.23-4.38.9-10.23-.45-11.93-.1-.12-.14-.18-.13-.18M218.13,394.35h-1.26s-.55,1.13-.55,1.13c-.36.76-.24,1.53.37,2.3.38.66.23,3.59.12,5.53-.09,1.76-.19,3.57-.1,5.26.1,1.85.66,11.32,2.36,16.3,1.51,4.41,7.58,9.06,8.27,9.57l2.16,1.62.92-2.54c.06-.17,1.47-4.11,1.47-8.03,0-.52,0-1.06.02-1.62.06-3.37.14-7.57-1.7-13.06-.86-2.56-2.89-6-6.06-10.22-4.67-6.23-5.13-6.23-6.03-6.23h0Z"/>
      </g>
      <g>
        <path class="cls-7" d="M337.96,433.17c-.06-.16-1.41-3.95-1.41-7.69,0-.53,0-1.08-.02-1.64-.06-3.29-.13-7.4,1.65-12.73,1.25-3.73,9.46-15.77,11.14-15.77h.63l.27.57c.28.58-.08,1.02-.25,1.24-.63.79-.47,3.79-.34,6.21.09,1.73.19,3.52.1,5.15-.09,1.83-.65,11.17-2.31,16.02-1.43,4.19-7.66,8.9-7.93,9.09l-1.08.81-.46-1.27Z"/>
        <path class="cls-3" d="M349.32,396.35s-.03.06-.13.18c-1.35,1.7-.23,7.56-.45,11.93-.22,4.37-.9,11.8-2.26,15.75-1.35,3.95-7.58,8.62-7.58,8.62,0,0-1.35-3.74-1.35-7.35s-.45-7.98,1.58-14.05c1.88-5.63,10.08-15.09,10.19-15.09M349.32,394.35c-.91,0-1.36,0-6.03,6.23-3.16,4.22-5.2,7.66-6.06,10.22-1.84,5.5-1.76,9.69-1.7,13.06.01.56.02,1.1.02,1.62,0,3.91,1.41,7.86,1.47,8.03l.92,2.54,2.16-1.62c.69-.52,6.77-5.16,8.27-9.57,1.71-4.98,2.27-14.45,2.36-16.29.09-1.68-.01-3.5-.1-5.25-.1-1.94-.26-4.88.14-5.56.59-.74.72-1.51.35-2.27l-.55-1.13h-1.26Z"/>
      </g>
      <g>
        <path class="cls-7" d="M124.33,187.82l-.22-.71c-.1-.32-2.35-7.83-.33-14.88,2.06-7.19,9.15-15.35,12.54-17.91,3.12-2.35,4.12-3.36,4.13-3.37l1.38-1.41.32,1.95c.07.42,1.64,10.35-1.02,17.96-3.15,9.01-8.85,14.27-10.52,15.67-3.13,2.61-5.3,2.69-5.54,2.69h-.74Z"/>
        <path class="cls-3" d="M141.17,151.66s1.63,10.01-.98,17.47c-2.61,7.46-7.28,12.77-10.21,15.23-2.94,2.46-4.9,2.46-4.9,2.46,0,0-2.29-7.46-.33-14.31,1.96-6.85,8.91-14.92,12.18-17.38,3.26-2.46,4.24-3.47,4.24-3.47M142.5,147.42l-2.76,2.85s-1.04,1.03-4.02,3.27c-3.49,2.62-10.78,11.02-12.9,18.43-2.1,7.33.24,15.12.34,15.45l.43,1.41h1.48c.45,0,2.85-.14,6.18-2.92,1.72-1.44,7.58-6.86,10.82-16.11,2.75-7.85,1.14-18.02,1.07-18.45l-.64-3.92h0Z"/>
      </g>
      <g>
        <path class="cls-7" d="M121.94,220.36c0-.43.15-10.61,4.65-14.93,4.27-4.11,21.19-14.61,21.9-15.05l2.52-1.56-1.05,2.77c-.25.64-6.05,15.8-9.1,19.23-5.66,6.35-17.1,10.34-17.59,10.51l-1.34.46v-1.42Z"/>
        <path class="cls-3" d="M149.02,191.22s-5.95,15.59-8.91,18.92c-5.55,6.23-17.17,10.23-17.17,10.23,0,0,.09-10.14,4.34-14.22,4.24-4.08,21.74-14.92,21.74-14.92M153,186.4l-5.03,3.12c-.72.45-17.72,11-22.07,15.18-2.07,1.99-3.53,5.26-4.34,9.72-.58,3.18-.61,5.81-.61,5.92l-.03,2.83,2.68-.92c.49-.17,12.18-4.24,18.01-10.79,3.12-3.5,8.66-17.9,9.29-19.54l2.11-5.53h0Z"/>
      </g>
      <g>
        <path class="cls-7" d="M124.48,194.68c.06-.09,5.6-8.77,8.94-13.43,3.45-4.82,14.63-11.17,15.11-11.44l2.12-1.2-2.65,9.27-.03.07c-.15.32-3.71,7.99-7.18,11.16-3.48,3.18-14.67,6.9-15.15,7.06l-2.67.88,1.51-2.37Z"/>
        <path class="cls-3" d="M149.02,170.68l-1.96,6.85s-3.59,7.77-6.95,10.84c-3.36,3.07-14.79,6.85-14.79,6.85,0,0,5.55-8.69,8.91-13.39,3.36-4.7,14.79-11.15,14.79-11.15M152.28,166.54l-4.25,2.4c-.48.27-11.85,6.73-15.43,11.73-3.35,4.69-8.74,13.12-8.97,13.48l-3.03,4.74,5.34-1.76c1.21-.4,11.94-4,15.51-7.27,3.61-3.31,7.26-11.15,7.42-11.48l.06-.14.04-.15,1.96-6.85,1.34-4.69h0Z"/>
      </g>
      <g>
        <path class="cls-7" d="M119.05,255.45c-.02-.39-.5-9.73,3.46-15.29,3.94-5.54,11.93-12.35,18.47-14.16,6.22-1.72,11.39-4.11,11.44-4.13l2.41-1.12-1.07,2.43c-.25.58-6.33,14.23-14.42,21.4-8.05,7.13-18.46,11.56-18.9,11.74l-1.31.55-.08-1.42Z"/>
        <path class="cls-3" d="M152.84,222.77s-6.15,13.94-14.17,21.05c-8.02,7.11-18.62,11.57-18.62,11.57,0,0-.52-9.31,3.28-14.66,3.8-5.34,11.54-12.01,17.92-13.77,6.38-1.76,11.59-4.19,11.59-4.19M156.81,218.72l-4.82,2.24c-.05.02-5.15,2.38-11.28,4.08-7.01,1.94-15.03,8.94-19.02,14.54-4.16,5.85-3.67,15.52-3.65,15.93l.16,2.83,2.61-1.1c.45-.19,11-4.67,19.17-11.92,8.26-7.31,14.42-21.16,14.68-21.74l2.14-4.86h0Z"/>
      </g>
      <g>
        <path class="cls-7" d="M121.43,285.97c.2-.7,5-17.14,12.3-21.26,7.05-3.98,10.99-5.57,14.52-5.86.69-.06,1.41-.08,2.12-.08,2.36,0,3.99.31,4.06.32l1.3.25-.6,1.18c-.2.4-5.03,9.81-13.17,14.36-7.83,4.39-18.9,12.1-19.01,12.18l-2.31,1.62.78-2.71Z"/>
        <path class="cls-3" d="M150.37,259.77c2.29,0,3.87.3,3.87.3,0,0-4.8,9.48-12.76,13.94-7.97,4.46-19.09,12.23-19.09,12.23,0,0,4.8-16.7,11.83-20.66,7.03-3.97,10.78-5.46,14.11-5.73.72-.06,1.41-.08,2.04-.08M150.37,257.77c-.74,0-1.48.03-2.2.09-3.7.3-7.75,1.93-14.94,5.98-7.52,4.25-12.25,20.06-12.77,21.85l-1.56,5.42,4.63-3.23c.11-.08,11.14-7.77,18.92-12.13,8.4-4.71,13.36-14.38,13.57-14.79l1.2-2.37-2.61-.5c-.07-.01-1.8-.34-4.25-.34h0Z"/>
      </g>
      <g>
        <path class="cls-7" d="M126.44,305.99c.04-.61,1.06-14.95,5.2-19.73.59-.68,1.15-1.35,1.7-2.01,3.16-3.78,6.15-7.35,12.24-9.97,6.69-2.88,10.05-5.37,10.08-5.4l1.52-1.14.08,1.9c.02.39.3,9.58-6.64,15.9-3.05,2.77-5.75,4.63-8.13,6.28-2.77,1.91-4.97,3.42-6.43,5.56-2.86,4.19-7.71,9.18-7.92,9.39l-1.9,1.95.18-2.71Z"/>
        <path class="cls-3" d="M156.26,269.67s.37,9.04-6.31,15.12c-6.68,6.07-11.86,7.85-14.71,12.01-2.85,4.16-7.81,9.25-7.81,9.25,0,0,.99-14.56,4.96-19.15,3.97-4.59,6.68-8.75,13.58-11.72,6.9-2.97,10.29-5.52,10.29-5.52M158.11,265.78l-3.04,2.29s-3.33,2.46-9.88,5.28c-6.31,2.72-9.37,6.38-12.61,10.25-.55.65-1.1,1.32-1.69,2-4.29,4.95-5.34,18.76-5.44,20.32l-.37,5.43,3.8-3.9c.21-.21,5.12-5.26,8.03-9.52,1.36-1.99,3.48-3.45,6.17-5.3,2.41-1.66,5.13-3.54,8.23-6.36,7.29-6.62,6.98-16.27,6.97-16.68l-.15-3.81h0Z"/>
      </g>
      <g>
        <path class="cls-7" d="M132.45,327.79c-.07-.55-1.58-13.5,1.73-18.54,3.26-4.95,12.39-12.19,15.85-13.58,2.98-1.2,6.03-3.65,6.06-3.67l1.23-1,.37,1.54c.06.27,1.53,6.78-3.28,14.6-4.73,7.69-7.24,10-12.25,13.77-4.8,3.62-7.92,7.36-7.95,7.4l-1.48,1.79-.28-2.31Z"/>
        <path class="cls-3" d="M156.72,292.77s1.49,6.29-3.16,13.84c-4.65,7.56-7.04,9.76-12,13.5-4.96,3.74-8.12,7.56-8.12,7.56,0,0-1.58-13.07,1.58-17.87,3.16-4.8,12.23-11.93,15.39-13.2,3.16-1.27,6.31-3.82,6.31-3.82M157.93,289.22l-2.47,1.99c-.06.05-2.99,2.39-5.81,3.52-3.56,1.44-12.96,8.88-16.31,13.96-3.46,5.26-2.06,17.8-1.89,19.21l.56,4.63,2.97-3.59s3.09-3.7,7.78-7.24c5.12-3.86,7.68-6.21,12.5-14.05,5.03-8.17,3.47-15.06,3.4-15.35l-.73-3.09h0Z"/>
      </g>
      <g>
        <path class="cls-7" d="M137.66,339.85c-.1-.38-2.32-9.26.3-14.34,2.41-4.67,6.25-11.03,11.74-12.44,3.58-.92,5.98-1.33,7.8-1.33,1.48,0,2.57.28,3.33.86,1.68,1.27,3.52,3.85,3.6,3.96l.72,1.02-1.16.48c-.06.03-6.31,2.64-9.28,5.64-1.43,1.44-3.87,3.04-6.22,4.58-2.6,1.7-5.82,3.81-6.23,4.94-.9,2.55-2.66,6.6-2.73,6.77l-1.16,2.68-.72-2.83Z"/>
        <path class="cls-3" d="M157.51,312.74c1.2,0,2.12.2,2.73.66,1.58,1.19,3.38,3.74,3.38,3.74,0,0-6.45,2.68-9.61,5.86-3.16,3.18-11.78,7.34-12.68,9.89-.9,2.55-2.71,6.71-2.71,6.71,0,0-2.26-8.83.22-13.63,2.48-4.8,6.14-10.66,11.1-11.93,3.05-.78,5.65-1.29,7.56-1.29M157.51,310.74h0c-1.91,0-4.39.42-8.05,1.36-5.88,1.51-9.88,8.11-12.38,12.95-2.75,5.32-.64,14.06-.39,15.04l1.45,5.67,2.32-5.37c.07-.17,1.84-4.26,2.75-6.84.41-.89,3.8-3.11,5.83-4.44,2.4-1.57,4.88-3.19,6.39-4.71,2.83-2.86,8.9-5.4,8.96-5.42l2.31-.96-1.45-2.04c-.2-.29-2.04-2.84-3.81-4.18-.95-.72-2.23-1.06-3.94-1.06h0Z"/>
      </g>
      <g>
        <path class="cls-7" d="M151.1,364.66c-.16-.29-3.87-7.07-3.87-11.65,0-.93-.08-1.93-.16-2.99-.3-3.8-.68-8.52,2.49-13.43,3.84-5.96,13.17-15.51,13.57-15.91l1.23-1.25.45,1.7c.35,1.33,3.43,13.09,2.24,16.67-1.18,3.55-5.4,8.63-8.95,12.19-.4.4-.76.76-1.11,1.1-2.54,2.52-3.5,3.46-4.03,6.16-.63,3.16,0,6.72,0,6.76l-1.86.66Z"/>
        <path class="cls-3" d="M163.84,321.38s3.38,12.7,2.25,16.09c-1.13,3.39-5.33,8.41-8.71,11.8-3.38,3.39-4.73,4.38-5.41,7.77-.68,3.39,0,7.13,0,7.13,0,0-3.75-6.79-3.75-11.16s-1.66-9.94,2.17-15.88c3.83-5.94,13.44-15.75,13.44-15.75M164.87,317.47l-2.46,2.51c-.4.41-9.8,10.02-13.7,16.07-3.35,5.19-2.96,10.11-2.65,14.05.08,1.04.16,2.02.16,2.91,0,4.75,3.59,11.39,3.99,12.13l3.72-1.32s-.6-3.42,0-6.39c.48-2.4,1.24-3.15,3.76-5.64.34-.34.71-.71,1.11-1.1,3.63-3.65,7.95-8.86,9.19-12.58,1.25-3.77-1.63-15.02-2.22-17.24l-.9-3.39h0Z"/>
      </g>
      <g>
        <path class="cls-7" d="M187.8,403.58c-1.71,0-12.84-12.51-13.38-15.04-.45-2.11-.43-8.42-.41-13.98.01-2.99.02-5.58-.06-6.47-.23-2.59-.01-6.96,0-7.14l.17-3.41,1.69,2.97c.06.11,6.49,11.36,8.95,15.99l.55,1.03c2.27,4.22,4.06,7.56,3.62,13.86-.15,2.17-.38,3.93-.56,5.34-.37,2.87-.5,4.17.15,5.1.11.16.46.65.17,1.22l-.28.54h-.62Z"/>
        <path class="cls-3" d="M174.95,361s6.45,11.29,8.93,15.96c2.48,4.67,4.51,7.85,4.06,14.35-.45,6.5-1.58,9.17-.23,11.08.09.13.12.19.08.19-.46,0-11.77-11.28-12.4-14.25-.68-3.18-.22-17.79-.45-20.34-.22-2.55,0-7,0-7M173.29,354.07l-.34,6.82c0,.19-.23,4.62,0,7.28.08.85.07,3.54.06,6.39-.02,6.78,0,12.14.43,14.19.14.68.53,2.47,6.75,9.18,6.18,6.65,6.87,6.65,7.6,6.65h1.22l.57-1.09c.21-.41.47-1.26-.24-2.26-.44-.62-.3-1.86.03-4.39.18-1.43.41-3.2.56-5.4.46-6.58-1.49-10.2-3.74-14.4-.18-.33-.36-.67-.55-1.02-2.47-4.64-8.9-15.9-8.96-16.02l-3.39-5.93h0Z"/>
      </g>
      <g>
        <path class="cls-7" d="M199.75,414.1c-.4-.34-9.78-8.39-11.42-14.56-1.44-5.44-2.85-12.87-1.33-17.39,1.28-3.83,1.3-11.83,1.3-11.91v-3.05s1.81,2.46,1.81,2.46c.46.63,11.3,15.47,11.3,23.69,0,4.1-.29,7.27-.52,9.81-.21,2.33-.37,4.01-.17,5.13.45,2.55.68,4.86.69,4.96l.24,2.46-1.88-1.6Z"/>
        <path class="cls-3" d="M189.29,370.25s11.1,15.12,11.1,23.1-1.13,12.57-.68,15.12c.45,2.54.68,4.88.68,4.88,0,0-9.52-8.11-11.1-14.05-1.58-5.94-2.71-12.78-1.35-16.81,1.35-4.03,1.35-12.22,1.35-12.22M187.29,364.15v6.1c0,2.19-.23,8.54-1.25,11.59-1.59,4.75-.16,12.39,1.32,17.96,1.69,6.36,10.72,14.19,11.74,15.06l3.76,3.21-.48-4.92c0-.1-.24-2.44-.7-5.04-.18-.99-.02-2.7.18-4.87.23-2.56.53-5.75.53-9.9,0-8.54-11.02-23.64-11.49-24.28l-3.61-4.91h0Z"/>
      </g>
      <g>
        <path class="cls-7" d="M442.37,187.82c-.24,0-2.41-.08-5.54-2.69-1.67-1.4-7.36-6.65-10.52-15.67-2.67-7.62-1.09-17.54-1.02-17.96l.32-1.96,1.38,1.43s1,1.01,4.13,3.37c3.39,2.55,10.48,10.72,12.53,17.9,2.02,7.05-.24,14.56-.33,14.88l-.22.71h-.74Z"/>
        <path class="cls-3" d="M426.28,151.66s.98,1.01,4.24,3.47c3.26,2.46,10.21,10.53,12.17,17.38,1.96,6.85-.33,14.31-.33,14.31,0,0-1.96,0-4.9-2.46-2.94-2.46-7.6-7.77-10.22-15.23-2.61-7.46-.98-17.47-.98-17.47M424.95,147.47l-.64,3.87c-.07.43-1.68,10.6,1.06,18.45,3.24,9.26,9.1,14.67,10.82,16.11,3.33,2.78,5.73,2.92,6.18,2.92h1.48l.43-1.41c.1-.33,2.43-8.11.34-15.45-2.12-7.4-9.41-15.8-12.89-18.43-3.03-2.28-4.01-3.26-4.02-3.27l-2.76-2.79h0Z"/>
      </g>
      <g>
        <path class="cls-7" d="M444.18,221.31c-.48-.17-11.93-4.15-17.59-10.51-3.05-3.43-8.85-18.58-9.1-19.23l-1.05-2.77,2.52,1.56c.72.45,17.63,10.94,21.9,15.05,4.5,4.32,4.64,14.5,4.65,14.93v1.42s-1.33-.46-1.33-.46Z"/>
        <path class="cls-3" d="M418.43,191.22s17.49,10.84,21.74,14.92c4.25,4.08,4.34,14.22,4.34,14.22,0,0-11.62-3.99-17.17-10.23-2.97-3.33-8.91-18.92-8.91-18.92M414.45,186.4l2.11,5.53c.62,1.63,6.16,16.03,9.29,19.54,5.83,6.55,17.51,10.62,18.01,10.79l2.68.92-.03-2.83c-.01-1.12-.24-11.11-4.95-15.64-4.35-4.18-21.35-14.73-22.07-15.18l-5.03-3.12h0Z"/>
      </g>
      <g>
        <path class="cls-7" d="M441.81,196.16c-.48-.16-11.67-3.88-15.15-7.06-3.47-3.17-7.03-10.84-7.18-11.16l-.03-.07-2.65-9.27,2.12,1.2c.47.27,11.66,6.62,15.11,11.44,3.34,4.66,8.88,13.34,8.94,13.43l1.51,2.37-2.67-.88Z"/>
        <path class="cls-3" d="M418.43,170.68s11.43,6.45,14.79,11.15c3.36,4.7,8.91,13.39,8.91,13.39,0,0-11.43-3.78-14.79-6.85s-6.95-10.84-6.95-10.84l-1.96-6.85M415.16,166.54l1.34,4.69,1.96,6.85.04.15.06.14c.15.33,3.8,8.17,7.42,11.48,3.57,3.27,14.3,6.87,15.51,7.27l5.34,1.76-3.03-4.74c-.23-.36-5.62-8.79-8.97-13.48-3.58-5-14.95-11.45-15.43-11.73l-4.25-2.4h0Z"/>
      </g>
      <g>
        <path class="cls-7" d="M447.01,256.31c-.44-.19-10.84-4.61-18.9-11.74-8.09-7.17-14.17-20.82-14.42-21.4l-1.07-2.43,2.41,1.12c.05.02,5.22,2.41,11.44,4.13,6.54,1.81,14.52,8.62,18.47,14.16,3.96,5.57,3.49,14.9,3.46,15.29l-.08,1.42-1.31-.55Z"/>
        <path class="cls-3" d="M414.61,222.77s5.21,2.43,11.59,4.19c6.38,1.76,14.12,8.43,17.92,13.77,3.8,5.35,3.28,14.66,3.28,14.66,0,0-10.6-4.46-18.62-11.57-8.02-7.11-14.17-21.05-14.17-21.05M410.63,218.72l2.14,4.86c.26.59,6.42,14.43,14.67,21.74,8.18,7.24,18.73,11.73,19.17,11.92l2.61,1.1.16-2.83c.02-.41.51-10.08-3.65-15.93-3.99-5.6-12.01-12.61-19.02-14.54-6.13-1.69-11.23-4.05-11.28-4.08l-4.82-2.24h0Z"/>
      </g>
      <g>
        <path class="cls-7" d="M444.48,287.07c-.11-.08-11.17-7.79-19.01-12.18-8.14-4.56-12.97-13.97-13.17-14.36l-.6-1.18,1.3-.25c.07-.01,1.7-.32,4.06-.32.71,0,1.43.03,2.12.08,3.54.29,7.47,1.88,14.53,5.86,7.3,4.12,12.1,20.56,12.3,21.26l.78,2.71-2.31-1.62Z"/>
        <path class="cls-3" d="M417.08,259.77c.63,0,1.32.02,2.04.08,3.34.27,7.08,1.76,14.12,5.73,7.03,3.97,11.83,20.66,11.83,20.66,0,0-11.12-7.77-19.09-12.23-7.96-4.46-12.76-13.94-12.76-13.94,0,0,1.58-.3,3.88-.3M417.08,257.77c-2.45,0-4.18.32-4.25.34l-2.61.5,1.2,2.37c.21.41,5.17,10.08,13.57,14.78,7.79,4.36,18.81,12.05,18.92,12.13l4.63,3.23-1.56-5.42c-.51-1.79-5.24-17.6-12.77-21.85-7.19-4.06-11.24-5.68-14.94-5.98-.72-.06-1.46-.09-2.2-.09h0Z"/>
      </g>
      <g>
        <path class="cls-7" d="M439.29,306.75c-.21-.21-5.05-5.2-7.91-9.39-1.46-2.14-3.65-3.65-6.43-5.56-2.38-1.64-5.08-3.5-8.13-6.28-6.94-6.31-6.65-15.51-6.64-15.9l.08-1.9,1.52,1.14s3.39,2.52,10.08,5.4c6.09,2.62,9.08,6.19,12.24,9.97.55.66,1.11,1.33,1.7,2.01,4.14,4.79,5.16,19.12,5.2,19.73l.18,2.71-1.9-1.95Z"/>
        <path class="cls-3" d="M411.18,269.67s3.38,2.55,10.29,5.52c6.9,2.97,9.61,7.13,13.58,11.72,3.97,4.59,4.96,19.15,4.96,19.15,0,0-4.96-5.09-7.8-9.25-2.85-4.16-8.03-5.94-14.71-12.01-6.68-6.07-6.31-15.12-6.31-15.12M409.34,265.8l-.16,3.79c-.02.41-.32,10.05,6.97,16.68,3.1,2.82,5.83,4.7,8.24,6.36,2.69,1.85,4.81,3.32,6.17,5.3,2.91,4.26,7.82,9.31,8.02,9.52l3.8,3.9-.37-5.43c-.11-1.56-1.16-15.37-5.44-20.32-.59-.68-1.14-1.34-1.69-2-3.24-3.87-6.3-7.53-12.61-10.25-6.55-2.82-9.84-5.26-9.87-5.28l-3.04-2.28h0Z"/>
      </g>
      <g>
        <path class="cls-7" d="M433.24,328.3s-3.15-3.78-7.95-7.4c-5.01-3.78-7.52-6.08-12.25-13.77-4.81-7.82-3.34-14.32-3.28-14.6l.37-1.54,1.23,1s3.08,2.47,6.06,3.67c3.46,1.4,12.59,8.63,15.85,13.58,3.32,5.05,1.8,17.99,1.74,18.54l-.28,2.31-1.48-1.79Z"/>
        <path class="cls-3" d="M410.73,292.77s3.16,2.55,6.31,3.82c3.16,1.27,12.23,8.41,15.39,13.2,3.16,4.8,1.58,17.87,1.58,17.87,0,0-3.16-3.82-8.12-7.56-4.96-3.74-7.36-5.94-12-13.5-4.65-7.56-3.16-13.84-3.16-13.84M409.52,289.22l-.73,3.09c-.07.29-1.63,7.18,3.4,15.35,4.82,7.84,7.39,10.19,12.5,14.05,4.69,3.54,7.75,7.2,7.78,7.24l2.97,3.58.56-4.62c.17-1.41,1.57-13.95-1.89-19.21-3.34-5.08-12.75-12.52-16.31-13.96-2.85-1.15-5.78-3.5-5.8-3.52l-2.47-1.99h0Z"/>
      </g>
      <g>
        <path class="cls-7" d="M427.9,340c-.07-.17-1.83-4.22-2.73-6.77-.4-1.13-3.63-3.25-6.22-4.94-2.36-1.54-4.79-3.13-6.22-4.58-2.98-3-9.22-5.62-9.28-5.64l-1.16-.48.72-1.02c.08-.11,1.91-2.69,3.6-3.96.77-.58,1.86-.86,3.33-.86,1.82,0,4.23.41,7.8,1.33,5.49,1.41,9.33,7.78,11.74,12.44,2.62,5.08.4,13.96.31,14.34l-.72,2.83-1.16-2.68Z"/>
        <path class="cls-3" d="M409.94,312.74c1.91,0,4.5.51,7.56,1.29,4.96,1.27,8.62,7.13,11.1,11.93,2.48,4.8.23,13.63.23,13.63,0,0-1.8-4.16-2.71-6.71-.9-2.55-9.53-6.71-12.68-9.89-3.16-3.18-9.61-5.86-9.61-5.86,0,0,1.8-2.54,3.38-3.74.61-.46,1.54-.66,2.73-.66M409.94,310.74c-1.7,0-2.99.35-3.94,1.06-1.77,1.34-3.61,3.89-3.81,4.18l-1.45,2.04,2.31.96c.06.03,6.12,2.57,8.96,5.42,1.51,1.52,3.99,3.14,6.39,4.71,2.03,1.33,5.42,3.55,5.84,4.45.91,2.56,2.67,6.65,2.75,6.82l2.33,5.37,1.45-5.67c.25-.98,2.36-9.72-.39-15.04-2.5-4.84-6.5-11.44-12.38-12.95-3.66-.94-6.14-1.36-8.05-1.36h0Z"/>
      </g>
      <g>
        <path class="cls-7" d="M414.48,364s.63-3.6,0-6.76c-.54-2.7-1.49-3.64-4.04-6.16-.34-.34-.71-.7-1.1-1.1-3.55-3.57-7.77-8.64-8.95-12.19-1.19-3.58,1.88-15.34,2.24-16.67l.45-1.7,1.23,1.25c.4.4,9.73,9.95,13.57,15.91,3.17,4.91,2.79,9.64,2.49,13.43-.08,1.06-.16,2.06-.16,2.99,0,4.58-3.71,11.36-3.87,11.65l-1.86-.66Z"/>
        <path class="cls-3" d="M403.6,321.38s9.61,9.81,13.44,15.75c3.83,5.94,2.17,11.51,2.17,15.88s-3.75,11.16-3.75,11.16c0,0,.68-3.74,0-7.13-.68-3.39-2.03-4.38-5.41-7.77-3.38-3.39-7.58-8.41-8.71-11.8-1.13-3.39,2.25-16.09,2.25-16.09M402.57,317.47l-.9,3.39c-.59,2.22-3.47,13.47-2.22,17.24,1.23,3.71,5.55,8.93,9.19,12.58.4.4.77.76,1.11,1.1,2.52,2.49,3.28,3.24,3.76,5.64.59,2.99,0,6.35,0,6.39l3.72,1.32c.41-.74,4-7.38,4-12.13,0-.89.08-1.87.16-2.91.31-3.95.7-8.86-2.65-14.06-3.9-6.04-13.3-15.66-13.7-16.07l-2.46-2.51h0Z"/>
      </g>
      <g>
        <path class="cls-7" d="M403.74,378.4c0-.05-.91-5.25-2.24-10.37-.71-2.74-2.66-4.57-4.72-6.51-1.58-1.49-3.22-3.03-4.34-5.05-2.63-4.73,1.69-16.35,2.19-17.66l.7-1.82,1.07,1.62c.05.08,5.42,8.19,8.63,11.91,3.34,3.87,4.53,10.02,4.53,14.5,0,3.97-3.75,13.19-3.91,13.58l-1.32,3.23-.59-3.44Z"/>
        <path class="cls-3" d="M395.57,339.17s5.41,8.2,8.71,12.01c3.29,3.82,4.28,10.02,4.28,13.84s-3.83,13.21-3.83,13.21c0,0-.9-5.22-2.26-10.45-1.35-5.22-6.68-7.35-9.16-11.8-2.48-4.45,2.25-16.81,2.25-16.81M395.09,334.82l-1.39,3.63c-.85,2.21-4.92,13.48-2.13,18.5,1.2,2.15,2.89,3.75,4.53,5.29,2.04,1.92,3.8,3.58,4.44,6.04,1.32,5.08,2.21,10.24,2.22,10.29l1.19,6.87,2.64-6.45c.41-1,3.98-9.87,3.98-13.96,0-4.65-1.25-11.07-4.77-15.15-3.17-3.68-8.5-11.73-8.56-11.81l-2.14-3.25h0Z"/>
      </g>
      <g>
        <path class="cls-7" d="M379.04,403.58l-.29-.55c-.29-.57.05-1.06.17-1.22.65-.92.52-2.23.15-5.1-.18-1.41-.41-3.17-.56-5.34-.44-6.3,1.36-9.63,3.63-13.86l.55-1.02c2.46-4.63,8.88-15.88,8.95-15.99l1.69-2.96.17,3.41c0,.18.23,4.55,0,7.14-.08.89-.07,3.46-.06,6.45.02,5.58.04,11.89-.41,14.01-.54,2.53-11.66,15.04-13.38,15.04h-.61Z"/>
        <path class="cls-3" d="M392.5,361s.23,4.45,0,7c-.22,2.54.23,17.15-.45,20.34-.63,2.96-11.94,14.25-12.4,14.25-.03,0,0-.06.08-.19,1.35-1.91.22-4.59-.23-11.08s1.58-9.68,4.06-14.35c2.48-4.67,8.93-15.96,8.93-15.96M394.15,354.08l-3.39,5.93c-.26.46-6.5,11.38-8.96,16.02l-.55,1.02c-2.25,4.2-4.2,7.82-3.74,14.4.15,2.2.38,3.97.56,5.4.33,2.53.46,3.78.03,4.39-.71,1-.46,1.85-.24,2.26l.56,1.08h1.23c.73,0,1.43,0,7.6-6.65,6.23-6.71,6.61-8.5,6.75-9.18.44-2.06.45-7.42.43-14.22,0-2.83-.02-5.51.06-6.36.24-2.65.01-7.09,0-7.28l-.35-6.82h0Z"/>
      </g>
      <g>
        <path class="cls-7" d="M352.48,421.12c.03-.09,2.79-9.11,2.54-13.73l-.06-1.11c-.23-4.07-.32-5.76,1.46-9.35,1.27-2.56,4.86-6.7,7.23-9.45.94-1.09,1.92-2.21,2.07-2.48.19-.37.55-.59.95-.59h.46l.35.38c.96,1.14,1.19,11.25.36,16.14-.98,5.77-2,9.56-4.57,13.05-2.39,3.25-8.97,8.03-9.25,8.23l-2.42,1.75.88-2.86Z"/>
        <path class="cls-3" d="M366.67,385.42c.51,0,1.17,9.56.19,15.36-1.03,6.07-2.06,9.47-4.39,12.62-2.32,3.16-9.03,8.01-9.03,8.01,0,0,2.84-9.23,2.58-14.08-.26-4.86-.52-6.31,1.29-9.96,1.81-3.64,8.77-10.93,9.29-11.9.02-.04.05-.06.07-.06M366.67,383.42h0c-.74,0-1.43.41-1.81,1.08-.21.31-1.14,1.39-1.97,2.34-2.55,2.95-6.05,6.99-7.37,9.66-1.9,3.82-1.79,5.71-1.56,9.85l.06,1.1c.2,3.69-1.73,10.91-2.49,13.39l-1.76,5.71,4.84-3.5c.28-.21,6.99-5.08,9.47-8.45,2.69-3.65,3.74-7.55,4.75-13.48.72-4.26.85-15.26-.58-16.96-.4-.47-.97-.74-1.58-.74h0Z"/>
      </g>
      <g>
        <path class="cls-7" d="M161.79,378.61c-.16-.39-3.91-9.61-3.91-13.58,0-4.47,1.19-10.63,4.53-14.5,3.22-3.73,8.58-11.83,8.63-11.91l1.07-1.62.7,1.82c.5,1.31,4.82,12.93,2.19,17.66-1.12,2.02-2.76,3.56-4.34,5.05-2.06,1.94-4.01,3.78-4.72,6.51-1.33,5.12-2.23,10.31-2.24,10.37l-.59,3.44-1.32-3.23Z"/>
        <path class="cls-3" d="M171.88,339.17s4.73,12.36,2.25,16.81c-2.48,4.46-7.81,6.58-9.16,11.8-1.35,5.22-2.25,10.45-2.25,10.45,0,0-3.83-9.39-3.83-13.21s.99-10.02,4.29-13.84c3.3-3.82,8.71-12.01,8.71-12.01M172.35,334.82l-2.14,3.25c-.05.08-5.38,8.13-8.55,11.81-3.52,4.07-4.77,10.5-4.77,15.15,0,4.09,3.57,12.96,3.98,13.96l2.64,6.45,1.19-6.87c0-.05.91-5.21,2.22-10.29.64-2.46,2.4-4.11,4.44-6.03,1.64-1.54,3.33-3.14,4.53-5.29,2.79-5.02-1.29-16.29-2.13-18.5l-1.39-3.63h0Z"/>
      </g>
    </g>
    <path id="weiss_innen" data-name="weiss innen" class="cls-7" d="M337.47,504.33c-.23-.12-24.27-13.17-53.75-30.49-29.48,17.32-53.52,30.37-53.75,30.49l-1.21.66-10.71-6.44,3.83-1.99c.23-.12,23.15-12.06,52.2-28.42-19.09-11.37-35.98-21.92-50.22-31.36-1.07.37-1.9.7-2.43.98l-.18.09c-2.05,1.07-5.14,2.69-11.6,3.33-1.94.19-4.64.29-8.04.29-5.76,0-11.63-.28-11.69-.28l-2.87-.14,2.33-1.67c.08-.05,7.63-5.47,10.45-7.36l.25-.17c2.42-1.63,4.11-2.77,11.39-3.46-2.18-1.51-4.29-3.01-6.32-4.46-.58.38-1.3,1.04-2.11,1.79-1.17,1.09-2.64,2.45-4.57,3.78-4.18,2.9-7.23,3.06-14.6,3.46l-1.98.11c-8.66.48-15.91,3.23-15.99,3.26l-2.92,1.12,1.73-2.61c.15-.23,3.72-5.58,8.17-9.85,4.72-4.53,15.64-5.91,23.44-6.56.42-.04.83-.06,1.24-.06-.45-.34-.9-.67-1.34-1.01-2.52-1.92-5.08-3.92-7.61-5.96-1.88.1-2.44.9-3.71,2.68-.28.4-.58.83-.93,1.28-2.13,2.81-8.46,7.25-14.5,9.38-5.82,2.06-15.23,2.99-15.62,3.02l-1.57.15.53-1.48c.1-.29,2.56-7.1,5.67-11.61,3.05-4.43,13.04-6.91,20.29-8.39.57-.12,1.21-.18,1.88-.18.6,0,1.25.05,1.93.14-4.11-3.5-7.97-7-11.53-10.44-.86.3-1.97.73-3.21,1.22-2.51.99-5.63,2.21-9.15,3.28-3.23.98-6.68,1.48-10.24,1.48-4.3,0-8.68-.74-12.67-2.13-6.89-2.41-7.96-6.48-8-6.65l-.12-.51.35-.39c.08-.09,2-2.24,5.05-3.38,3.26-1.22,10.33-1.97,18.44-1.97,4.09,0,9.27,1.56,13.86,3.33-4.88-5.1-9.25-10.19-13.25-15.48-3.31,1.67-8.9,4.46-13.78,6.71-7.08,3.27-19.45,16.86-19.57,17l-2.42,2.67.7-3.54c.02-.11,2.27-11.43,3.16-15.35,1.03-4.49,13.7-13.9,17-15.76,1.55-.88,3.17-1.29,5.1-1.29,1.07,0,2.16.12,3.29.28-1.49-2.3-2.93-4.64-4.28-6.99-4.34.1-14.1.56-22.82,2.71-11.63,2.86-17.46,8.83-17.52,8.89l-1.52,1.58-.2-2.18c0-.11-.23-2.73,1.1-6.3,1.42-3.82,10.67-11.69,14.84-13.75,2.79-1.38,8.49-2.21,15.24-2.21,1.75,0,3.46.06,5.05.17-1.3-2.72-2.55-5.53-3.73-8.38-3.04.37-7.11.99-10.52,1.95-5.67,1.6-18.41,15.12-18.54,15.26l-2,2.13.28-2.91c.03-.29.69-7.24,1.6-11.41,1.04-4.83,10.31-13.46,11.1-14.07.56-.44,1.31-.64,2.37-.64,1.58,0,3.83.44,7.25,1.11,1.27.25,2.71.53,4.31.82.42.08.83.17,1.23.26-.32-.87-.63-1.73-.94-2.58-1.66.09-3.25.14-4.76.14-6.26,0-10.37-.79-12.2-2.36-3.93-3.36-21-18.15-21.17-18.3l-1.99-1.73,2.77-.03c1.43,0,14.21.13,22.64,4.57,4.94,2.6,8.79,5.42,11.33,7.5-.91-2.91-1.8-5.93-2.71-9.15-4.15-2.85-16.38-11.36-20.13-14.84-4.48-4.17-13.83-14.28-14.22-14.71l-1.5-1.62,2.34-.06c1.04,0,10.38.19,19.33,6.64,3.4,2.45,5.73,3.96,7.43,5.06,1.31.85,2.27,1.47,3.06,2.09-.38-2.59-.7-5.28-.98-8.04-3.88-.84-10.23-2.49-14.15-5-5.94-3.8-15.65-16.34-16.06-16.87l-1.04-1.35,1.69-.25c.05,0,1.28-.18,3.25-.18,4.2,0,12.29.82,19.24,6.34,1.97,1.56,4.09,4,6.32,7.26-.09-1.75-.17-3.53-.22-5.33-2.7-2.11-6.41-5.29-9.42-8.93-4.91-5.94-11.8-17.16-12.09-17.64l-1.07-1.75,2.03.23c.33.04,8.26.99,14.29,6.95,2.32,2.29,4.4,4.87,6.14,7.6.08-5.44.29-11.11.64-16.9-2.1-.34-5.07-1.55-8.6-5.04-5.55-5.49-8.78-11.12-9.62-16.72-.66-4.44-.35-10.77-.34-11.04l.07-1.29,1.24.39c.38.12,9.45,3.05,12.22,8.91.94,1.99,2.21,4.12,3.45,6.18.96,1.6,1.89,3.16,2.66,4.63.35-3.8.76-7.64,1.21-11.48-2.86-2.4-8.82-7.81-11.44-13.14-3.27-6.65-6.58-16.44-6.61-16.54l-.53-1.58,1.65.28c.29.05,7.08,1.27,12.44,7.69-.78-1.37-1.41-2.91-1.77-4.64-1.64-7.81-1.03-18.81-1-19.27l.11-1.87,1.49,1.14c.31.23,7.53,5.76,8.92,9.77.26.76.5,1.84.71,3.08.06-1.77.29-3.65.82-5.5,2.06-7.19,9.15-15.35,12.54-17.91,3.12-2.35,4.12-3.36,4.13-3.37l1.38-1.41.32,1.95c.07.42,1.64,10.35-1.02,17.96-3.15,9.01-8.85,14.27-10.52,15.67-1.32,1.1-2.47,1.75-3.36,2.13.14.77.15,1.53.03,2.28-1.96,12.43-11.15,76.49,1.06,117.47,12.42,41.69,28.06,70.82,75.03,105.28,18.33,13.45,45.36,30.39,80.35,50.37,34.98-19.98,62.01-36.92,80.35-50.37,46.97-34.46,62.61-63.59,75.03-105.28,12.12-40.67,3.08-104.56,1.14-116.95-.14-.91-.17-1.85-.09-2.82-.87-.38-2.01-1.02-3.32-2.11-1.67-1.4-7.36-6.65-10.52-15.67-2.67-7.62-1.09-17.54-1.02-17.96l.32-1.96,1.38,1.43s1,1.01,4.13,3.37c3.39,2.55,10.48,10.72,12.53,17.9.53,1.84.76,3.72.81,5.49.21-1.24.45-2.31.72-3.08,1.39-4.02,8.62-9.54,8.92-9.77l1.5-1.14.11,1.87c.03.46.64,11.46-1,19.27-.36,1.73-1,3.28-1.77,4.65,5.36-6.43,12.15-7.65,12.44-7.69l1.65-.28-.53,1.58c-.03.1-3.34,9.89-6.61,16.54-2.62,5.32-8.57,10.72-11.42,13.12.45,3.83.86,7.67,1.22,11.45.76-1.46,1.69-3,2.64-4.58,1.23-2.06,2.51-4.19,3.45-6.18,2.77-5.86,11.83-8.79,12.22-8.91l1.24-.39.07,1.29c.01.27.32,6.6-.34,11.04-.83,5.6-4.07,11.23-9.62,16.72-3.51,3.47-6.47,4.69-8.57,5.04.35,5.79.57,11.44.64,16.86,1.74-2.71,3.81-5.28,6.12-7.56,6.03-5.96,13.96-6.91,14.29-6.95l2.03-.23-1.07,1.75c-.29.47-7.18,11.7-12.09,17.64-3,3.63-6.7,6.81-9.4,8.91-.06,1.8-.13,3.57-.23,5.32,2.22-3.24,4.34-5.67,6.3-7.23,6.95-5.52,15.04-6.34,19.24-6.34,1.97,0,3.2.18,3.25.18l1.69.25-1.04,1.35c-.41.53-10.13,13.08-16.06,16.87-3.92,2.51-10.27,4.16-14.14,5-.28,2.75-.61,5.45-.99,8.04.79-.62,1.74-1.24,3.06-2.09,1.7-1.1,4.03-2.61,7.43-5.06,8.95-6.45,18.3-6.64,19.33-6.64l2.34.06-1.5,1.62c-.4.43-9.74,10.54-14.22,14.71-3.76,3.49-15.99,11.99-20.14,14.84-.91,3.22-1.8,6.24-2.71,9.15,2.54-2.08,6.39-4.9,11.33-7.5,8.44-4.44,21.21-4.57,22.64-4.57l2.77.03-1.99,1.73c-.17.15-17.24,14.94-21.17,18.3-1.83,1.57-5.94,2.36-12.2,2.36-1.51,0-3.1-.05-4.76-.14-.3.85-.62,1.71-.94,2.58.4-.1.81-.18,1.23-.26,1.6-.3,3.03-.58,4.31-.82,3.42-.67,5.67-1.11,7.25-1.11,1.06,0,1.82.2,2.37.64,1.33,1.04,10.12,9.54,11.1,14.07.9,4.17,1.57,11.12,1.6,11.41l.28,2.91-2-2.13c-.13-.14-12.87-13.66-18.54-15.26-3.41-.96-7.48-1.58-10.52-1.95-1.19,2.85-2.44,5.66-3.73,8.38,1.59-.11,3.31-.17,5.05-.17,6.75,0,12.45.83,15.24,2.21,4.17,2.07,13.42,9.94,14.84,13.75,1.33,3.57,1.11,6.19,1.1,6.3l-.2,2.18-1.52-1.58c-.06-.06-5.9-6.04-17.52-8.89-8.73-2.14-18.48-2.61-22.82-2.71-1.35,2.34-2.79,4.68-4.28,6.99,1.13-.15,2.22-.28,3.29-.28,1.93,0,3.55.41,5.1,1.29,3.29,1.86,15.97,11.27,17,15.76.89,3.92,3.14,15.24,3.16,15.35l.7,3.54-2.42-2.67c-.12-.14-12.49-13.73-19.57-17-5.06-2.34-10.88-5.25-13.78-6.71-.5.67-1.01,1.33-1.53,1.99,3.99,2.82,18,15.19,19.46,17.4,1.39,2.1,1.69,5.6,1.97,10.7.26,4.67-.49,9.48-.53,9.68l-.24,1.52-1.29-.84c-.42-.27-10.31-6.77-14.52-14.18-2.67-4.71-4.36-9.85-5.6-13.6-.64-1.96-1.2-3.65-1.62-4.35-.39-.66-.82-1.31-1.23-1.89-1.39,1.66-2.83,3.31-4.29,4.93,1.93,1.28,4.09,2.91,5.13,4.37,3.53,4.98,6.43,11.72,7.39,17.16,1.04,5.86.55,19.54.53,20.12l-.1,2.67-1.68-2.08c-.18-.22-1.66-2.06-3.61-4.61.63,1.51,1.01,2.57,1.05,2.68l.53,1.48-1.57-.15c-.4-.04-9.8-.96-15.62-3.02-6.03-2.13-12.37-6.57-14.5-9.38-.35-.46-.65-.88-.93-1.28-1.26-1.79-1.83-2.58-3.71-2.69-2.52,2.04-5.08,4.04-7.6,5.96-.44.34-.89.67-1.34,1.01.4,0,.82.03,1.24.06,7.8.65,18.72,2.03,23.44,6.56,4.45,4.27,8.02,9.62,8.17,9.85l1.73,2.61-2.92-1.12c-.07-.03-7.33-2.78-15.99-3.26l-1.98-.11c-7.36-.39-10.41-.56-14.6-3.46-1.93-1.34-3.39-2.69-4.57-3.78-.81-.75-1.53-1.42-2.11-1.79-2.02,1.45-4.14,2.94-6.32,4.46,7.28.68,8.96,1.82,11.39,3.46l.25.17c2.83,1.89,10.38,7.31,10.45,7.36l2.33,1.67-2.87.14c-.06,0-5.93.28-11.69.28-3.4,0-6.11-.1-8.04-.29-6.46-.64-9.55-2.26-11.6-3.33l-.18-.09c-.53-.28-1.36-.61-2.43-.98-14.24,9.45-31.13,19.99-50.22,31.36,29.2,16.45,51.97,28.3,52.2,28.42l3.83,1.99-10.71,6.44-1.21-.66ZM386.76,406.25c.67,0,1.3.06,1.88.18,5.28,1.08,12.02,2.69,16.47,5.2-1.21-2.04-2.09-3.83-2.34-5.06-.67-3.32-.81-10.79-.82-16.21-5.13,5.35-10.78,10.64-17.12,16.04.68-.1,1.33-.14,1.93-.14ZM117.46,193.44c1.64,2.38,2.67,4.35,3.31,5.95.14-.96.28-1.91.43-2.85-1-.67-2.37-1.7-3.73-3.1ZM446.69,199.37c.64-1.59,1.67-3.56,3.3-5.93-1.36,1.4-2.73,2.43-3.73,3.1.14.94.29,1.88.43,2.83Z"/>
    <path id="_äste" data-name="äste" class="cls-3" d="M426.28,151.66s.98,1.01,4.24,3.47c3.26,2.46,10.21,10.53,12.17,17.38,1.51,5.29.5,10.93-.05,13.23.71,1.14,1.2,2.41,1.43,3.74.04.23.08.48.13.75.16-2.61.8-12.01,1.92-15.25,1.3-3.78,8.58-9.3,8.58-9.3,0,0,.65,11.24-.98,19.01-1.34,6.37-6.68,10.2-8.57,11.37.46,2.97.99,6.54,1.53,10.61v-3.01c0-2.48,1.64-6.89,6.85-13.28,5.21-6.39,12.01-7.55,12.01-7.55,0,0-3.28,9.75-6.56,16.42-2.73,5.54-9.39,11.33-11.58,13.14.58,4.85,1.15,10.2,1.63,15.89,1.16-3.97,5.32-9.47,7.63-14.36,2.61-5.53,11.62-8.38,11.62-8.38,0,0,.33,6.45-.33,10.84-.65,4.39-3.03,9.92-9.33,16.15-3.98,3.94-7.13,4.77-8.92,4.86.43,6.89.71,14.11.73,21.42,1.71-3.29,4.24-7.01,7.79-10.51,5.86-5.79,13.7-6.67,13.7-6.67,0,0-7.08,11.57-12.01,17.52-3.18,3.84-7.17,7.17-9.61,9.05-.1,3.2-.25,6.4-.47,9.57,2.18-3.56,5.15-7.8,8.15-10.19,6.67-5.3,14.42-6.13,18.62-6.13,1.92,0,3.1.17,3.1.17,0,0-9.95,12.89-15.81,16.64-4.01,2.56-10.7,4.22-14.52,5.02-.39,4.08-.91,8.1-1.57,12,2.01-3.05,3.61-3,12.58-9.47,8.68-6.25,17.67-6.45,18.75-6.45.07,0,.11,0,.11,0,0,0-9.66,10.47-14.17,14.66-3.79,3.52-16.41,12.27-20.32,14.96-1.24,4.43-2.53,8.72-3.88,12.89,2.27-2.15,7.1-6.19,13.83-9.74,8.24-4.34,20.84-4.46,22.18-4.46.08,0,.12,0,.12,0,0,0-17.19,14.9-21.16,18.3-1.99,1.7-7.02,2.12-11.55,2.12-2.02,0-3.94-.08-5.45-.18-.61,1.74-1.24,3.46-1.89,5.16.85-.31,1.85-.6,3.06-.82,5.77-1.07,9.33-1.91,11.37-1.91.8,0,1.38.13,1.76.43,1.35,1.06,9.84,9.33,10.74,13.5.9,4.16,1.58,11.29,1.58,11.29,0,0-12.99-13.84-18.99-15.54-3.87-1.09-8.57-1.75-11.43-2.07-1.48,3.61-3.06,7.13-4.76,10.61,2.02-.21,4.34-.32,6.72-.32,5.77,0,11.87.66,14.8,2.1,4.28,2.12,13.08,9.81,14.34,13.21,1.27,3.39,1.04,5.86,1.04,5.86,0,0-5.92-6.21-18.01-9.17-9.13-2.24-19.23-2.67-23.63-2.75-1.79,3.13-3.7,6.22-5.76,9.29,1.95-.25,3.68-.57,5.34-.57,1.56,0,3.06.28,4.61,1.16,3.61,2.04,15.61,11.16,16.51,15.11.9,3.95,3.16,15.33,3.16,15.33,0,0-12.54-13.84-19.9-17.23-5.35-2.47-11.52-5.56-14.49-7.07-.88,1.17-1.78,2.34-2.71,3.51.23.13.48.28.74.46,3.87,2.67,18.06,15.29,19.35,17.24,1.29,1.94,1.55,5.58,1.8,10.2.26,4.61-.52,9.47-.52,9.47,0,0-10.06-6.55-14.19-13.84-4.13-7.28-5.93-15.78-7.22-17.97-.65-1.1-1.42-2.19-2.04-3.01-1.86,2.25-3.82,4.51-5.88,6.76,1.75,1.1,4.67,3.09,5.85,4.75,3.1,4.37,6.19,10.93,7.22,16.75,1.03,5.83.52,19.91.52,19.91,0,0-13.16-16.27-14.19-21.37-.78-3.88-.82-13.94-.8-18.53-6.33,6.77-13.61,13.57-22.06,20.55,1.9-.64,3.99-1.14,5.87-1.14.58,0,1.15.05,1.68.16,5.19,1.06,16.6,3.53,19.67,7.98,3.07,4.46,5.55,11.38,5.55,11.38,0,0-9.61-.93-15.38-2.97-5.78-2.04-12-6.37-14.03-9.04-2.01-2.65-2.56-4.34-5.77-4.37-2.52,2.04-5.14,4.1-7.87,6.17-1.32,1-2.68,2.02-4.07,3.05.93-.15,1.92-.24,2.98-.24.49,0,1,.02,1.52.06,7.67.64,18.4,2.04,22.83,6.29,4.42,4.24,8.03,9.68,8.03,9.68,0,0-7.36-2.83-16.29-3.32-8.93-.5-11.78-.42-16.06-3.39-3.74-2.59-5.69-5.28-7.33-5.92-2.93,2.11-5.97,4.24-9.11,6.41,9.73.65,11.2,1.83,13.96,3.68,2.85,1.91,10.43,7.34,10.43,7.34,0,0-5.84.28-11.64.28-2.9,0-5.79-.07-7.95-.28-6.45-.64-9.38-2.25-11.41-3.31-.75-.39-1.9-.82-3.04-1.19-16.61,11.03-35,22.34-52.07,32.49,29.56,16.68,53.27,29.04,53.74,29.28l2.25,1.17-8.69,5.23-.71-.39c-.47-.26-24.48-13.29-54.23-30.77-29.74,17.48-53.76,30.52-54.23,30.77l-.71.39-8.69-5.23,2.25-1.17c.47-.24,24.18-12.6,53.73-29.28-17.07-10.15-35.46-21.46-52.07-32.49-1.14.38-2.29.8-3.04,1.19-2.03,1.06-4.96,2.68-11.41,3.31-2.15.21-5.04.28-7.95.28-5.8,0-11.64-.28-11.64-.28,0,0,7.58-5.44,10.43-7.34,2.77-1.86,4.23-3.03,13.96-3.68-3.14-2.16-6.18-4.3-9.11-6.41-1.64.65-3.59,3.33-7.33,5.92-4.28,2.97-7.13,2.89-16.06,3.39-8.93.5-16.29,3.32-16.29,3.32,0,0,3.61-5.44,8.03-9.68,4.42-4.24,15.16-5.65,22.83-6.29.52-.04,1.03-.06,1.52-.06,1.06,0,2.05.09,2.98.24-1.39-1.03-2.75-2.04-4.07-3.05-2.73-2.08-5.35-4.13-7.87-6.17-3.21.03-3.76,1.72-5.77,4.37-2.03,2.68-8.26,7-14.03,9.04-5.78,2.04-15.39,2.97-15.39,2.97,0,0,2.48-6.92,5.55-11.38,3.07-4.45,14.48-6.92,19.67-7.98.53-.11,1.09-.16,1.68-.16,1.88,0,3.97.5,5.87,1.14-5.55-4.59-10.6-9.1-15.21-13.57-2.45.76-7.22,2.95-12.91,4.69-3.28,1-6.65,1.44-9.95,1.44-4.4,0-8.65-.79-12.34-2.07-6.45-2.25-7.36-5.94-7.36-5.94,0,0,1.8-2.04,4.65-3.1,2.84-1.06,9.38-1.91,18.09-1.91,5.73,0,13.58,3.17,18.04,5.16-6.58-6.54-12.22-13.03-17.13-19.58-2.97,1.51-9.14,4.6-14.49,7.07-7.35,3.39-19.89,17.23-19.89,17.23,0,0,2.25-11.38,3.16-15.33.9-3.95,12.91-13.07,16.51-15.11,1.55-.88,3.05-1.16,4.61-1.16,1.66,0,3.39.32,5.34.57-2.06-3.07-3.97-6.16-5.76-9.29-4.41.08-14.51.51-23.63,2.75-12.09,2.97-18.01,9.17-18.01,9.17,0,0-.22-2.47,1.04-5.86,1.27-3.39,10.06-11.08,14.35-13.21,2.93-1.45,9.02-2.1,14.8-2.1,2.38,0,4.7.11,6.72.32-1.7-3.47-3.28-7-4.76-10.61-2.86.33-7.56.98-11.43,2.07-6,1.7-18.99,15.54-18.99,15.54,0,0,.68-7.13,1.58-11.29.9-4.16,9.38-12.44,10.74-13.5.38-.3.95-.43,1.76-.43,2.05,0,5.61.85,11.37,1.91,1.21.22,2.2.51,3.06.82-.65-1.7-1.28-3.42-1.89-5.16-1.51.09-3.43.18-5.45.18-4.53,0-9.56-.42-11.55-2.12-3.97-3.39-21.16-18.3-21.16-18.3,0,0,.04,0,.12,0,1.34,0,13.94.12,22.17,4.46,6.73,3.55,11.57,7.59,13.83,9.74-1.35-4.17-2.64-8.46-3.88-12.89-3.91-2.69-16.53-11.43-20.32-14.96-4.51-4.19-14.17-14.66-14.17-14.66,0,0,.04,0,.11,0,1.08,0,10.07.19,18.75,6.45,8.98,6.47,10.57,6.41,12.58,9.47-.65-3.9-1.16-7.92-1.56-12-3.83-.79-10.53-2.45-14.54-5.02-5.86-3.75-15.81-16.64-15.81-16.64,0,0,1.18-.17,3.1-.17,4.2,0,11.95.83,18.62,6.13,3.01,2.39,5.99,6.66,8.17,10.22-.22-3.17-.37-6.37-.47-9.58-2.44-1.88-6.45-5.21-9.63-9.07-4.92-5.95-12.01-17.52-12.01-17.52,0,0,7.84.88,13.7,6.67,3.57,3.52,6.11,7.26,7.82,10.56.02-7.32.3-14.56.73-21.47-1.78-.07-4.95-.9-8.95-4.86-6.3-6.23-8.68-11.76-9.33-16.15-.65-4.39-.33-10.84-.33-10.84,0,0,9,2.86,11.62,8.38,2.33,4.93,6.53,10.48,7.66,14.45.48-5.72,1.05-11.1,1.63-15.97-2.16-1.78-8.86-7.6-11.6-13.16-3.28-6.67-6.56-16.42-6.56-16.42,0,0,6.79,1.15,12.01,7.55,5.21,6.39,6.85,10.8,6.85,13.28v3.16c.54-4.12,1.07-7.75,1.54-10.75-1.87-1.17-7.24-5-8.58-11.38-1.63-7.77-.98-19.01-.98-19.01,0,0,7.28,5.53,8.58,9.3,1.12,3.24,1.76,12.68,1.92,15.26.09-.55.18-1.05.26-1.48.19-1.07.66-2.05,1.34-2.88-.53-2.2-1.63-7.97-.08-13.37,1.96-6.85,8.91-14.92,12.18-17.38,3.26-2.46,4.24-3.47,4.24-3.47,0,0,1.63,10.01-.98,17.47-2.61,7.46-7.28,12.77-10.21,15.23-1.68,1.41-3.04,2.01-3.9,2.26.28.89.37,1.82.22,2.76-2.01,12.69-11.17,76.76,1.09,117.91,12.48,41.9,28.2,71.18,75.4,105.8,21.85,16.03,53.21,34.9,80.94,50.72,27.73-15.82,59.09-34.69,80.94-50.72,47.2-34.63,62.91-63.9,75.4-105.8,12.1-40.62,3.34-103.54,1.18-117.39-.17-1.11-.16-2.22,0-3.32-.86-.28-2.17-.88-3.76-2.22-2.94-2.46-7.6-7.77-10.22-15.23-2.61-7.46-.98-17.47-.98-17.47M142.5,147.42l-2.77,2.85s-.98.98-4.01,3.26c-3.49,2.62-10.78,11.02-12.9,18.43-.09.33-.18.66-.26.99-2.24-3.94-7.92-8.33-8.63-8.87l-2.99-2.27-.22,3.75c-.03.47-.65,11.59,1.02,19.53.03.15.06.29.1.43-4.72-3.8-9.37-4.63-9.62-4.67l-3.3-.56,1.07,3.17c.14.4,3.36,9.96,6.66,16.67,2.58,5.25,8.24,10.52,11.28,13.11-.3,2.6-.59,5.21-.85,7.79-.36-.62-.74-1.24-1.12-1.87-1.22-2.04-2.48-4.15-3.4-6.09-2.95-6.25-12.42-9.31-12.82-9.44l-2.47-.78-.13,2.59c-.01.27-.33,6.7.35,11.24.86,5.82,4.2,11.63,9.9,17.28,3.24,3.2,6.07,4.59,8.25,5.13-.26,4.41-.44,8.75-.53,12.97-1.36-1.84-2.88-3.58-4.5-5.19-6.28-6.2-14.54-7.19-14.88-7.23l-4.07-.46,2.14,3.49c.29.48,7.22,11.76,12.17,17.75,2.93,3.55,6.5,6.66,9.21,8.79.02.52.04,1.04.06,1.56-1.58-2.02-3.1-3.61-4.55-4.77-7.19-5.71-15.53-6.56-19.87-6.56-2.04,0-3.34.19-3.39.19l-3.38.5,2.09,2.7c.42.54,10.24,13.21,16.32,17.11,3.69,2.36,9.28,3.98,13.77,4.98.18,1.72.38,3.42.59,5.08-.37-.24-.77-.5-1.21-.79-1.69-1.09-4.01-2.59-7.39-5.03-9.2-6.63-18.85-6.83-19.92-6.83h-.15s-4.41.12-4.41.12l2.98,3.24c.4.43,9.77,10.57,14.28,14.77,3.65,3.39,14.73,11.13,19.95,14.73.56,2,1.13,3.93,1.69,5.8-2.37-1.76-5.4-3.77-8.98-5.65-8.65-4.56-21.65-4.69-23.11-4.69h-.14s-5.27.06-5.27.06l3.98,3.45c.17.15,17.24,14.95,21.17,18.31.73.62,1.73,1.13,3.02,1.53-.08.05-.17.11-.25.18-.84.66-10.33,9.46-11.46,14.65-.92,4.23-1.59,11.23-1.62,11.53l-.55,5.82,4-4.26c3.51-3.74,13.6-13.72,18.08-14.98,3.16-.89,6.98-1.49,9.62-1.83.88,2.1,1.8,4.17,2.74,6.19-1.11-.05-2.27-.08-3.43-.08-2.58,0-11.35.17-15.69,2.31-4.4,2.18-13.81,10.22-15.33,14.3-1.38,3.71-1.19,6.44-1.16,6.74l.4,4.39,3.04-3.19c.05-.05,5.73-5.84,17.04-8.61,8.26-2.03,17.46-2.54,22.01-2.66.92,1.59,1.89,3.18,2.88,4.75-.44-.03-.88-.05-1.32-.05-2.11,0-3.88.45-5.59,1.42-3.12,1.77-16.32,11.33-17.48,16.41-.9,3.93-3.08,14.92-3.17,15.38l-1.4,7.08,4.85-5.35c.12-.14,12.35-13.58,19.25-16.76,4.57-2.11,9.71-4.66,13.07-6.35,3.08,4.03,6.38,7.96,9.96,11.86-4.05-1.32-7.5-1.98-10.29-1.98-8.35,0-15.37.76-18.79,2.04-3.28,1.22-5.36,3.55-5.45,3.65l-.69.78.25,1.02c.12.49,1.37,4.82,8.64,7.35,4.1,1.43,8.59,2.19,13,2.19,3.66,0,7.2-.51,10.53-1.53,3.55-1.08,6.69-2.32,9.22-3.31.97-.38,1.86-.73,2.6-1,2.81,2.7,5.81,5.44,8.96,8.18-.41.03-.81.09-1.19.16-8.05,1.65-17.7,4.13-20.92,8.8-3.18,4.62-5.68,11.54-5.79,11.84l-1.06,2.97,3.14-.3c.4-.04,9.92-.98,15.86-3.08.51-.18,1.02-.37,1.52-.58-4.13,4.18-7.32,8.96-7.46,9.18l-3.47,5.22,5.85-2.25c.07-.03,7.19-2.72,15.68-3.19l1.98-.11c7.57-.4,10.7-.57,15.11-3.63,1.99-1.38,3.48-2.76,4.68-3.87.5-.46,1.01-.93,1.44-1.29,1.16.83,2.35,1.67,3.56,2.52-5.04.68-6.81,1.72-9.2,3.33l-.25.17c-2.84,1.9-10.17,7.16-10.48,7.38l-4.67,3.35,5.73.28c.06,0,5.95.29,11.74.29,3.43,0,6.17-.1,8.14-.29,6.66-.66,9.85-2.33,11.97-3.44l.17-.09c.3-.16.85-.41,1.83-.75,13.8,9.14,30.05,19.3,48.36,30.23-28.33,15.92-50.44,27.44-50.67,27.56l-2.25,1.17-3.17,1.65,3.06,1.84,8.69,5.23.98.59,1-.54.71-.39c.23-.12,23.77-12.89,53.27-30.21,29.5,17.32,53.04,30.09,53.28,30.21l.71.39,1,.54.98-.59,8.69-5.23,3.06-1.84-3.17-1.65-2.25-1.17c-.23-.12-22.46-11.7-50.67-27.56,18.31-10.93,34.57-21.09,48.36-30.23.98.35,1.53.6,1.83.75l.18.09c2.12,1.11,5.31,2.78,11.97,3.44,1.97.19,4.71.29,8.14.29,5.78,0,11.68-.28,11.74-.29l5.73-.28-4.66-3.34c-.31-.22-7.64-5.48-10.48-7.38l-.25-.17c-2.39-1.61-4.16-2.65-9.2-3.33,1.21-.85,2.4-1.69,3.56-2.52.43.35.94.83,1.44,1.29,1.2,1.11,2.69,2.5,4.68,3.87,4.41,3.06,7.55,3.23,15.11,3.63l1.98.11c8.49.47,15.61,3.17,15.68,3.19l5.84,2.23-3.46-5.21c-.14-.21-3.34-5-7.47-9.18.51.21,1.02.4,1.53.58,5.94,2.1,15.46,3.04,15.86,3.08l2.96.29,3.32,4.1.2-5.34c.02-.58.51-14.36-.54-20.33-.32-1.83-.86-3.81-1.57-5.82,4.36,7.56,14.34,14.12,14.76,14.4l2.58,1.68.48-3.04c.03-.21.8-5.12.54-9.9-.29-5.26-.6-8.88-2.14-11.19-1.4-2.11-14-13.31-18.88-17.04.14-.18.27-.35.41-.53,3.36,1.69,8.5,4.24,13.07,6.35,6.91,3.19,19.13,16.63,19.25,16.76l4.85,5.35-1.4-7.08c-.09-.47-2.27-11.45-3.17-15.38-1.16-5.08-14.36-14.64-17.48-16.41-1.71-.97-3.49-1.42-5.59-1.42-.44,0-.88.02-1.32.05.99-1.57,1.95-3.16,2.88-4.75,4.55.13,13.76.63,22.01,2.66,11.3,2.78,16.98,8.56,17.04,8.62l3.03,3.14.4-4.34c.03-.3.23-3.03-1.16-6.74-1.52-4.08-10.93-12.12-15.33-14.3-4.33-2.14-13.1-2.31-15.69-2.31-1.17,0-2.32.03-3.43.08.94-2.03,1.86-4.1,2.74-6.19,2.64.34,6.46.93,9.62,1.83,4.48,1.27,14.57,11.25,18.08,14.98l4,4.26-.55-5.82c-.03-.3-.7-7.3-1.61-11.53-1.13-5.19-10.62-13.99-11.46-14.65-.08-.06-.16-.12-.24-.18,1.29-.4,2.29-.91,3.02-1.53,3.93-3.36,21-18.16,21.17-18.31l3.98-3.45-5.27-.06h-.14c-1.45,0-14.46.13-23.11,4.69-3.58,1.89-6.61,3.89-8.98,5.65.56-1.87,1.12-3.8,1.69-5.8,5.22-3.59,16.31-11.34,19.95-14.73,4.51-4.19,13.88-14.34,14.28-14.77l2.99-3.24-4.41-.12h-.15c-1.07,0-10.72.19-19.92,6.82-3.38,2.43-5.7,3.93-7.39,5.03-.43.28-.83.54-1.2.78.22-1.66.42-3.35.6-5.07,4.49-1.01,10.07-2.62,13.76-4.98,6.08-3.89,15.9-16.57,16.32-17.11l2.09-2.7-3.38-.5c-.05,0-1.35-.19-3.39-.19-4.33,0-12.68.85-19.87,6.56-1.44,1.15-2.95,2.73-4.52,4.74.02-.51.04-1.03.06-1.55,2.7-2.13,6.26-5.24,9.18-8.78,4.95-5.99,11.88-17.28,12.17-17.75l2.14-3.49-4.07.46c-.35.04-8.6,1.03-14.88,7.23-1.61,1.59-3.11,3.32-4.47,5.15-.1-4.2-.28-8.53-.53-12.94,2.17-.55,5-1.94,8.22-5.13,5.7-5.65,9.04-11.46,9.9-17.28.67-4.53.36-10.97.35-11.24l-.13-2.59-2.47.78c-.4.13-9.87,3.19-12.82,9.44-.92,1.94-2.18,4.05-3.4,6.09-.37.62-.74,1.23-1.09,1.83-.26-2.58-.54-5.17-.85-7.77,3.03-2.59,8.68-7.85,11.26-13.09,3.3-6.71,6.53-16.26,6.66-16.67l1.07-3.17-3.3.56c-.24.04-4.9.88-9.62,4.68.03-.14.07-.29.1-.44,1.67-7.94,1.05-19.06,1.02-19.53l-.22-3.75-2.99,2.27c-.71.54-6.39,4.93-8.63,8.88-.08-.33-.16-.66-.26-.99-2.12-7.4-9.41-15.8-12.89-18.43-3.03-2.28-4.01-3.26-4.02-3.27l-2.76-2.79-.64,3.87c-.07.43-1.68,10.6,1.06,18.45,3.24,9.26,9.1,14.67,10.82,16.11.98.82,1.96,1.48,2.92,1.97-.03.8.02,1.59.14,2.35,1.11,7.12,3.8,26.09,4.74,48.43,1.19,28.16-.78,51.06-5.85,68.08-12.36,41.49-27.92,70.47-74.66,104.76-18.22,13.37-45.05,30.19-79.76,50.03-34.71-19.83-61.53-36.66-79.76-50.03-46.75-34.29-62.3-63.27-74.66-104.76-12.15-40.78-2.99-104.64-1.03-117.03.1-.61.12-1.22.07-1.84.84-.43,1.83-1.05,2.91-1.96,1.72-1.44,7.58-6.86,10.82-16.11,2.75-7.85,1.14-18.02,1.07-18.45l-.64-3.92h0ZM440.15,330.19c.02-.07.05-.13.07-.2.27.01.54.02.81.03-.29.05-.58.11-.88.17h0ZM126.41,330.03c.27-.01.54-.02.81-.03.02.07.05.13.07.2-.3-.06-.59-.11-.88-.17h0ZM407.39,385.93c.91-1.02,1.81-2.06,2.69-3.09.17.26.32.51.46.74.36.61.93,2.33,1.53,4.16.54,1.64,1.17,3.55,1.93,5.57-.69-1.19-1.41-2.34-2.17-3.4-.95-1.34-2.71-2.77-4.44-3.98h0ZM387.66,405.28c4.82-4.18,9.22-8.31,13.31-12.48.05,5.09.24,11.05.83,13.96.14.71.48,1.6.96,2.6-4.15-1.75-9.3-2.97-13.91-3.91-.38-.08-.77-.13-1.18-.16h0ZM372.59,417.54c2.17-1.66,4.37-3.38,6.53-5.13,1.09.14,1.48.69,2.58,2.23.29.4.6.84.95,1.31.9,1.18,2.5,2.64,4.5,4.1-3.76-1.13-8.57-1.96-14.56-2.51h0ZM180.3,420.06c2-1.46,3.61-2.92,4.5-4.1.35-.46.66-.9.95-1.31,1.09-1.54,1.48-2.09,2.58-2.23,2.17,1.75,4.36,3.47,6.53,5.13-5.99.55-10.8,1.38-14.56,2.51h0Z"/>
  </g>
  <g id="wappen_rand" data-name="wappen rand">
    <path id="hintergrund_schwarz" data-name="hintergrund schwarz" class="cls-3" d="M405.22,178.35l-.08-2.18-2.17.27s-1.64.2-4.22.2c-4.4,0-12.96-.59-20.92-4.58-11.58-5.79-14.45-12.06-14.48-12.12l-.92-2.21-2.01,1.3c-.18.11-17.66,11.37-28.74,14.32-17.38,4.63-46.62,5.38-47.92,5.41-1.29-.03-30.6-.77-47.99-5.41-11.08-2.95-28.57-14.21-28.74-14.32l-2.01-1.3-.92,2.21s-2.88,6.32-14.48,12.12c-7.96,3.98-16.52,4.58-20.92,4.58-2.58,0-4.2-.2-4.22-.2l-2.16-.27-.08,2.18c0,.21-.75,21.34,1.84,49.37,4.34,46.95,14.55,76.94,22.34,93.83,17.89,38.76,43.17,62.6,61.23,75.78,19.61,14.31,34.8,19.36,35.43,19.57l.62.2.62-.2c.64-.21,15.84-5.26,35.46-19.57,18.07-13.17,43.37-37.02,61.26-75.78,7.8-16.89,18-46.88,22.34-93.83,2.59-28.03,1.85-49.16,1.84-49.37Z"/>
    <g id="farben">
      <g id="bg">
        <path class="cls-6" d="M283.75,180.76s-30.36-.64-48.5-5.48c-11.52-3.07-29.31-14.58-29.31-14.58,0,0-2.86,6.85-15.43,13.14-12.57,6.29-26.28,4.57-26.28,4.57,0,0-3.11,83.54,24,142.29,34.28,74.28,95.46,94.29,95.46,94.29,0,0,61.24-20,95.53-94.29,27.11-58.75,24-142.29,24-142.29,0,0-13.72,1.71-26.29-4.57-12.57-6.29-15.43-13.14-15.43-13.14,0,0-17.79,11.51-29.31,14.58-18.14,4.84-48.44,5.48-48.44,5.48h0Z"/>
      </g>
      <path class="cls-5" d="M283.46,283.46v131.46c.15.05.23.08.23.08,0,0,61.24-20,95.53-94.29,5.41-11.72,9.61-24.42,12.88-37.25h-108.63Z"/>
      <path class="cls-5" d="M283.46,180.76c-3.07-.08-31.08-.9-48.21-5.47-11.52-3.07-29.31-14.58-29.31-14.58,0,0-2.86,6.85-15.43,13.14-12.57,6.29-26.28,4.57-26.28,4.57,0,0-1.99,53.54,11.12,105.04h108.11v-102.71Z"/>
    </g>
    <g id="linie_horizontal" data-name="linie horizontal">
      <rect class="cls-7" x="176.08" y="281.96" width="214.77" height="3"/>
    </g>
    <g id="linie_vertikal" data-name="linie vertikal">
      <rect class="cls-7" x="281.96" y="181.58" width="3" height="232"/>
    </g>
    <path id="linie_innen" data-name="linie innen" class="cls-7" d="M206.91,164.85c5.45,3.35,18.28,10.85,27.57,13.33,18.28,4.87,47.95,5.55,49.21,5.58h.06s.06,0,.06,0c1.25-.03,30.87-.71,49.15-5.58,9.29-2.48,22.13-9.98,27.58-13.33,2.15,2.9,6.55,7.43,15.05,11.68,8.43,4.22,17.25,5.1,23.16,5.1.55,0,1.06,0,1.53-.02.21,15.56-.2,86.73-23.79,137.84-17.39,37.68-41.93,60.86-59.45,73.68-16.33,11.94-29.77,17.36-33.35,18.68-3.58-1.33-17.01-6.74-33.32-18.68-17.51-12.82-42.03-36-59.42-73.68-23.59-51.11-24-122.28-23.79-137.84.47.01.98.02,1.53.02,5.91,0,14.73-.89,23.16-5.1,8.5-4.25,12.9-8.78,15.05-11.68M361.51,160.71s-17.79,11.51-29.31,14.58c-18.14,4.84-48.44,5.48-48.44,5.48,0,0-30.36-.64-48.5-5.48-11.52-3.07-29.31-14.58-29.31-14.58,0,0-2.86,6.85-15.43,13.14-8.13,4.07-16.75,4.79-21.82,4.79-2.76,0-4.47-.21-4.47-.21,0,0-3.11,83.54,24,142.29,34.28,74.28,95.46,94.29,95.46,94.29,0,0,61.24-20,95.53-94.29,27.11-58.75,24-142.29,24-142.29,0,0-1.71.21-4.47.21-5.07,0-13.68-.72-21.82-4.79-12.57-6.29-15.43-13.14-15.43-13.14h0Z"/>
  </g>
  <g id="wappen_klein" data-name="wappen klein">
    <path class="cls-6" d="M336.83,234.24l-.02-.55h-106.76l-.02.55c-.01.4-1.24,39.95,10.66,65.75,15.09,32.69,42.27,41.9,42.55,41.99l.18.06.18-.06c.27-.09,27.49-9.3,42.57-41.99,11.91-25.8,10.68-65.35,10.66-65.75Z"/>
    <g id="wellen">
      <path class="cls-7" d="M338.26,234.19l-.07-1.93h-109.53l-.07,1.93c0,.1-.33,10.15.82,23.25,1.55,17.65,4.91,32.17,9.98,43.15,15.35,33.25,42.26,42.38,43.4,42.75l.62.2.62-.2c1.14-.37,28.08-9.5,43.43-42.75,5.07-10.98,8.43-25.5,9.98-43.15,1.15-13.1.82-23.15.82-23.25ZM309.93,322.87c-8.44-.19-16.62-3.11-24.53-5.93-8.25-2.94-16.78-5.99-25.7-5.99-1.34,0-2.69.07-3.99.21-2.61.28-5.08.67-7.32,1.16l-.1.02c-2.37-3.52-4.63-7.42-6.68-11.75,3.71-1.3,7.86-2.18,12.71-2.69,1.29-.14,2.61-.2,3.93-.2,8.82,0,17.3,3.03,25.5,5.96,8.23,2.94,16.74,5.97,25.6,5.97,1.52,0,3.04-.09,4.51-.27,2.71-.32,5.11-.71,7.33-1.16-3.44,5.78-7.23,10.63-11.03,14.68h-.25ZM327.49,294.93c-3.38,1.02-7.38,1.79-12.23,2.38-1.45.17-2.94.26-4.44.26h0c-8.77,0-17.23-3.02-25.41-5.94-8.25-2.95-16.78-5.99-25.7-5.99-1.34,0-2.69.07-4,.21-7.21.76-12.76,2.27-17.99,4.91-1.29-3.97-2.36-8.1-3.23-12.23l.08-.04c4.14-2.33,9.72-4.85,19.75-5.9,1.29-.14,2.61-.2,3.93-.2,8.82,0,17.3,3.03,25.5,5.96,8.23,2.94,16.74,5.97,25.6,5.97,1.52,0,3.04-.09,4.51-.27,7.86-.95,13.52-2.4,18.33-4.71-1.15,5.31-2.63,10.59-4.5,15.53l-.21.06ZM334.21,266.95c-5,2.54-10.67,4.05-18.95,5.05-1.45.17-2.94.26-4.44.26h0c-8.77,0-17.23-3.02-25.41-5.94-8.25-2.95-16.78-5.99-25.7-5.99-1.34,0-2.69.07-3.99.21-11.69,1.23-17.58,4.39-23.02,7.8-.67-4.61-1.13-9.07-1.45-13.15l.13-.08c5.45-3.42,11.3-6.6,22.96-7.83,1.29-.14,2.61-.2,3.93-.2,8.82,0,17.3,3.03,25.5,5.96,8.23,2.94,16.74,5.97,25.6,5.97h0c1.52,0,3.04-.09,4.51-.27,11.23-1.35,16.77-3.57,21.98-6.69-.29,4.48-.75,9.53-1.47,14.81l-.17.09Z"/>
      <path class="cls-4" d="M309.93,323.16c-13.19,13.94-26.51,18.29-26.51,18.29,0,0-19.76-6.46-34.97-28.85,2.16-.48,4.57-.87,7.29-1.16,19.05-2,35.59,11.3,54.18,11.71h0ZM327.57,295.2c-.6,1.55-1.24,3.07-1.92,4.55-1.33,2.89-2.76,5.59-4.25,8.12-2.21.46-4.7.86-7.57,1.21-20.83,2.51-38.68-13.65-59.55-11.46-5.28.55-9.38,1.51-12.81,2.71l-.27-.58c-1.28-2.77-2.41-5.7-3.4-8.71,4.4-2.23,9.75-4.04,17.93-4.9,20.87-2.2,38.72,13.97,59.55,11.46,5.11-.62,9.04-1.42,12.28-2.39h0ZM334.34,267.21c-.53,3.85-1.21,7.82-2.06,11.79-4.28,2.09-9.59,3.71-18.44,4.78-20.83,2.51-38.68-13.65-59.55-11.46-9.42.99-15.08,3.25-19.86,5.94-.67-3.22-1.23-6.44-1.7-9.6,5.55-3.48,11.46-6.61,23.01-7.82,20.87-2.19,38.72,13.97,59.55,11.46,9.27-1.12,14.65-2.85,19.04-5.08h0ZM230.6,234.26h105.66s.25,7.19-.39,17.45c-5.05,3.05-10.57,5.37-22.03,6.75-20.83,2.51-38.68-13.65-59.55-11.46-11.6,1.22-17.51,4.37-23.08,7.87-.92-11.91-.61-20.61-.61-20.61h0Z"/>
    </g>
  </g>
  <g id="banderole_unten" data-name="banderole unten">
    <g>
      <path class="cls-4" d="M226.97,465.87l-3.15,10.81s-8.18-1.66-16.25-4.83c-5.83-2.29-6.26-5.26-5.69-7.69s7.01-2.03,11.27-1.43c9.27,1.29,15.96,4.15,33.35,8.12,17.39,3.97,37.55,4.44,37.55,4.44,0,0,20.16-.47,37.55-4.44,17.39-3.97,24.08-6.84,33.35-8.12,4.26-.59,10.7-1,11.27,1.43.57,2.43.14,5.4-5.69,7.69-8.06,3.17-16.25,4.83-16.25,4.83l-2.62-11.03,23.94-3.75s-11.61-31.29-17.03-34.35c-5.43-3.06-17.38-.78-32.81,3.06-15.44,3.84-31.71,3.42-31.71,3.42,0,0-16.27.42-31.71-3.42-15.43-3.84-27.38-6.13-32.81-3.06-5.43,3.06-16.62,34.35-16.62,34.35l24.05,3.98h0Z"/>
      <path class="cls-3" d="M343.59,477.84l-3.14-10.79c-.17.05-.35.1-.52.14-4.6,1.27-10.33,2.85-18.1,4.62-17.29,3.95-37.54,4.46-37.75,4.47h-.05c-.2,0-20.45-.52-37.75-4.47-7.78-1.78-13.5-3.35-18.1-4.62-.18-.05-.35-.1-.52-.14l-3.14,10.79-.9-.18c-.08-.02-8.36-1.72-16.41-4.88-5.16-2.03-7.22-4.92-6.3-8.85.08-.35.24-.67.46-.96,2.15-5.92,12.31-33.27,17.68-36.3,1.85-1.04,4.37-1.55,7.7-1.55,6.76,0,16.41,2.17,25.84,4.52,12.71,3.16,26.19,3.41,30.01,3.41.91,0,1.42-.01,1.43-.01.06,0,.56.01,1.48.01,3.83,0,17.31-.25,30.02-3.41,9.43-2.35,19.08-4.52,25.84-4.52,3.33,0,5.85.51,7.7,1.55,5.59,3.16,16.46,32.9,17.68,36.28v.02c.23.28.38.6.46.95.93,3.93-1.13,6.82-6.3,8.85-8.05,3.16-16.33,4.86-16.41,4.88l-.9.18ZM202.81,464.58c-.39,1.9-.07,4.3,5.12,6.34,6.35,2.49,12.85,4.06,15.18,4.59l2.55-8.75s-7.8-2.05-10.31-2.48c-4.13-.69-5.98-1.02-8.63-.88-3.69.19-3.92,1.18-3.92,1.18ZM342.44,466.74l2.55,8.76c2.33-.52,8.83-2.09,15.18-4.59,5.37-2.11,5.55-4.6,5.08-6.53,0,0,0-.02,0-.03,0,0-.02-1.03-3.45-.9-1.79.06-5.5.06-12.75,1.56-2.61.54-6.61,1.72-6.61,1.72ZM228.72,465.27c4.58,1.26,10.28,2.83,18.01,4.6,16.83,3.84,36.53,4.39,37.32,4.42.79-.02,20.5-.57,37.32-4.42,7.73-1.77,13.43-3.34,18.01-4.6.16-.05,1.3-.36,1.3-.36,5.28-1.45,9.31-2.51,14.12-3.18,1.52-.21,3.77-.46,5.89-.46,1.35,0,2.47.1,3.39.3-4.79-12.96-12.47-31.15-16.02-33.15-1.52-.86-3.78-1.29-6.72-1.29-6.54,0-16.05,2.14-25.36,4.46-12.58,3.13-25.52,3.46-30.5,3.47-.91,0-1.43-.01-1.47-.01,0,0-.52.01-1.43.01-4.98,0-17.92-.34-30.5-3.47-9.31-2.32-18.82-4.46-25.36-4.46-2.94,0-5.2.43-6.72,1.29-3.5,1.97-11.18,20.12-16.02,33.15.92-.2,2.04-.3,3.38-.3,2.12,0,4.38.25,5.9.46,4.81.67,8.83,1.73,14.1,3.17,0,0,1.16.32,1.32.37Z"/>
    </g>
    <path class="cls-3" d="M227.34,439.66l1.84,11.34,2.51-3.1c-.42-2.84-.83-5.67-1.25-8.51-.06-.37-.21-.63-.44-.79-.24-.16-.51-.28-.83-.35-.14-.04-.18-.14-.12-.31l.11-.42c0-.16.1-.23.25-.21.38.11.81.24,1.3.41.48.17,1.04.34,1.68.51.39.1.81.19,1.25.27.44.08.93.19,1.46.33.17.02.24.12.22.29l-.13.49c-.06.15-.21.2-.44.13-.25-.07-.48-.11-.68-.11s-.33.08-.38.25c-.01.05,0,.21.02.47.02.26.05.59.09.98.05.47.11.96.18,1.47.06.51.12.97.17,1.38.05.4.07.67.07.81h.05c.12-.14.33-.39.63-.75.3-.36.62-.75.97-1.17.35-.43.65-.82.92-1.18.26-.36.42-.61.47-.76.07-.3.02-.51-.16-.65-.18-.14-.41-.24-.69-.3-.1-.04-.12-.14-.07-.29l.13-.49c.02-.12.13-.16.31-.12.17.05.44.14.8.28.36.13.73.25,1.13.37.35.09.65.15.93.19.27.04.54.09.81.15.16.03.22.13.17.29l-.11.4c-.04.21-.12.29-.24.26-.21-.07-.48-.11-.79-.11-.31,0-.57.1-.77.32-.7.87-1.41,1.73-2.14,2.58-.73.85-1.44,1.71-2.14,2.58l.68,5.31c1.13-1.43,2.24-2.87,3.34-4.33,1.1-1.46,2.22-2.9,3.36-4.33.26-.29.45-.6.58-.95.04-.17,0-.31-.13-.41-.13-.1-.33-.2-.58-.29-.17-.08-.23-.2-.15-.37l.12-.44c.04-.12.13-.16.26-.13.24.07.53.17.86.29.33.12.67.24,1.02.34.25.06.5.11.76.14.26.03.52.08.78.15.18.05.24.16.19.33l-.14.51c-.03.11-.16.14-.37.08-.22-.05-.42-.03-.61.06-.19.1-.37.23-.54.4-.36.35-.76.8-1.21,1.34-.45.54-.89,1.09-1.34,1.66-.44.57-.84,1.07-1.18,1.5-1.13,1.43-2.64,3.41-4.51,5.92l-2.15,3.07-.91-.24c-.1-1.14-.21-2.26-.31-3.37s-.24-2.2-.41-3.28l-4.2,5.32-1-.27c-.34-2.39-.71-4.76-1.11-7.1-.4-2.35-.79-4.69-1.19-7.01-.13-.95-.34-1.88-.63-2.79-.13-.38-.29-.66-.48-.85-.19-.19-.43-.32-.71-.39-.12-.06-.15-.16-.09-.32l.11-.4c.02-.17.13-.23.32-.19.44.12.9.27,1.38.43.48.16.97.32,1.48.46.5.13.96.23,1.37.3.41.07.79.15,1.14.24.16.05.22.13.18.25l-.15.56c-.02.1-.07.15-.16.13-.22-.06-.42-.08-.6-.07-.18.01-.29.08-.33.19-.03.15-.02.39.03.72.05.33.1.62.14.88h0Z"/>
    <path class="cls-3" d="M245.08,456.46l2.53-11.88c.13-.62.06-1.04-.2-1.28-.26-.24-.68-.41-1.25-.51-.21-.04-.32-.12-.32-.24l.12-.54c.01-.15.09-.22.24-.2.18.04.57.15,1.17.31.6.16,1.31.33,2.14.52.82.17,1.55.3,2.19.4.64.1,1.12.18,1.43.24.2.03.29.1.28.21l-.14.66c-.05.1-.22.12-.5.04-.54-.12-.99-.11-1.32.04-.34.15-.56.49-.68,1.01l-2.53,11.88c-.13.64-.04,1.09.27,1.35.31.26.77.44,1.37.55.18.04.25.13.21.27l-.1.47c-.05.19-.17.26-.36.2-.55-.12-1.11-.26-1.65-.41-.55-.15-1.1-.29-1.65-.41-.62-.13-1.24-.24-1.87-.34-.63-.1-1.25-.21-1.87-.33-.09-.02-.14-.08-.14-.18l.13-.61c.02-.12.14-.16.37-.12.56.14,1.02.14,1.38.02.36-.13.61-.5.75-1.12h0Z"/>
    <path class="cls-3" d="M258.61,453.01l-.96,5.47c-.14.65-.11,1.15.09,1.5.19.35.68.6,1.46.73l3.26.57c.51.09.89.05,1.15-.12.25-.17.53-.42.82-.76l.93-.99c.13-.13.23-.21.3-.25.07-.04.13-.04.19-.03.12.02.29.08.5.17.21.09.32.21.32.34-.02.12-.06.23-.13.34-.22.43-.45.88-.7,1.33-.25.46-.51.96-.81,1.52-1.46-.26-2.92-.54-4.39-.84-1.46-.29-2.93-.57-4.39-.83-.72-.12-1.43-.23-2.13-.33-.72-.08-1.44-.18-2.15-.31-.1,0-.15-.08-.16-.22l.08-.43c.01-.12.08-.19.2-.21.12-.02.34-.02.67.02.36.06.7,0,1.01-.19.32-.19.55-.66.7-1.42l2.08-11.8c.08-.6-.04-.99-.38-1.18-.33-.19-.7-.31-1.09-.35-.12-.02-.22-.04-.29-.08-.07-.04-.09-.11-.08-.23l.08-.48c.02-.11.08-.17.17-.18.09,0,.2,0,.32.03.33.06.73.14,1.2.24.47.1.96.2,1.46.31.5.11.96.2,1.37.29,1.27.22,2.55.42,3.84.62,1.29.19,2.57.4,3.84.62.1.02.16.07.17.13.01.06,0,.13,0,.19-.1.53-.2,1.06-.3,1.59-.08.51-.16,1.02-.25,1.53-.04.17-.16.24-.36.21l-.48-.08c-.11,0-.13-.17-.08-.5.1-.9-.01-1.52-.32-1.86-.31-.34-.86-.56-1.64-.67l-2.26-.4c-.42-.08-.75-.11-1-.07-.24.04-.43.2-.57.47-.14.28-.26.73-.37,1.37l-.73,4.16,1.62.29c.58.12,1.07.19,1.46.21.39.02.73-.08,1.01-.3.28-.22.53-.64.76-1.26.04-.11.11-.16.22-.13l.4.07c.19.04.27.11.23.21-.16.88-.33,1.76-.49,2.64-.11.67-.23,1.38-.35,2.14-.04.22-.13.33-.25.32l-.55-.1c-.14-.02-.21-.09-.18-.23.1-.39.12-.87.05-1.41-.08-.34-.28-.57-.6-.69-.32-.12-.73-.22-1.24-.29l-2.28-.4h0Z"/>
    <path class="cls-3" d="M275.77,447.3l1.72,2.37c.76,1.07,1.55,2.14,2.37,3.22l4.76,6.36c.13.21.22.32.29.33.03,0,.05-.11.09-.3.03-.19.06-.42.09-.67.03-.26.05-.48.06-.68l.52-7.42c.08-.76.03-1.31-.16-1.64-.19-.34-.69-.53-1.5-.58-.12,0-.22-.03-.31-.07-.09-.05-.13-.13-.13-.25l.03-.41c.03-.2.15-.28.38-.24.62.05,1.19.11,1.72.18.53.07,1,.12,1.4.16.5.03.93.04,1.29.03.36,0,.7,0,1.01.01.18-.02.27.07.27.26l-.03.48c0,.08-.06.14-.19.17-.13.03-.35.03-.67,0-.59-.05-1.02.12-1.27.5s-.41,1.17-.46,2.36l-.64,9.23c-.06.92-.12,1.73-.16,2.42-.04.69-.07,1.24-.1,1.63.02.14-.07.2-.25.18-.41-.03-.7-.06-.85-.11-.15-.05-.3-.15-.46-.3-.32-.38-.57-.7-.78-.96-.2-.26-.39-.51-.56-.73l-8.96-12.01c-.27-.41-.48-.63-.61-.67-.06,0-.1.09-.12.24-.03.15-.04.32-.05.49,0,.17-.02.29-.02.35l-.61,8.72c-.06.84-.05,1.45.04,1.85.09.39.27.65.55.77.27.12.66.19,1.14.21.12,0,.23.02.3.05.08.03.12.1.11.2l-.04.53c0,.16-.12.22-.38.19-.48-.04-.88-.09-1.2-.14-.32-.06-.68-.1-1.11-.14-.46-.03-.97-.04-1.51-.04-.55,0-1.1-.02-1.68-.06-.31-.02-.45-.13-.41-.32l.03-.41c0-.16.09-.24.26-.25.47.05.88.04,1.22-.03.34-.07.61-.27.81-.62.2-.34.33-.91.39-1.7l.59-8.43c.1-1.29.11-2.23.03-2.83-.08-.6-.32-.99-.7-1.18-.38-.18-.98-.29-1.78-.33-.15-.02-.23-.1-.23-.23l.04-.51c0-.14.1-.21.28-.22.43.04.85.09,1.27.15.41.06.82.11,1.23.15.53.03,1.04.05,1.53.05.5,0,1.01.02,1.53.05.15.02.27.1.35.24s.15.26.21.36h0Z"/>
    <path class="cls-3" d="M303.07,448.63l1.41,11.49c.1.69.31,1.14.63,1.38.32.23.67.34,1.05.34.38,0,.72-.01,1.01-.03.29-.01.45.08.49.28.03.24-.07.39-.29.44-.22.06-.53.11-.93.14-.41.05-.9.09-1.48.13-.58.04-1.11.09-1.6.15-.33.04-.73.1-1.21.17s-.93.15-1.37.22c-.44.07-.76.12-.98.15-.09,0-.15-.05-.18-.14-.04-.09-.06-.16-.06-.21-.01-.22.1-.37.35-.45.25-.08.54-.15.87-.24.33-.09.61-.26.83-.51.23-.26.31-.68.25-1.26l-1.26-10.29c-.1-.7-.24-1.12-.44-1.24-.19-.12-.38-.16-.56-.1-.31.05-.62.13-.92.24-.3.11-.5.18-.6.2-.13,0-.24-.05-.3-.15-.06-.1-.1-.18-.1-.23,0-.24.09-.41.29-.51.21-.1.39-.18.55-.22,1.18-.46,2.06-.88,2.63-1.24.57-.37.96-.66,1.15-.87.2-.22.32-.33.37-.34.04,0,.1,0,.16.03.06.03.1.09.12.19.02.24.03.6.03,1.07,0,.47.02.96.08,1.45h0Z"/>
    <path class="cls-2" d="M310.62,449.59c.12.71.36,1.41.71,2.08.35.68.82,1.21,1.41,1.61s1.29.53,2.12.41c.98-.2,1.69-.66,2.12-1.39s.57-1.56.41-2.5c-.13-.74-.39-1.49-.78-2.24-.4-.75-.91-1.35-1.55-1.81-.64-.46-1.4-.62-2.26-.5-.76.15-1.31.44-1.66.88-.35.44-.55.96-.61,1.57-.06.61-.02,1.24.1,1.88h0ZM311.78,462.11c-.11.03-.23.03-.36.01-.13-.02-.21-.1-.24-.24-.04-.24.18-.46.65-.66.47-.2,1.14-.55,2-1.05.84-.55,1.53-1.23,2.07-2.03.54-.8.92-1.58,1.15-2.34.23-.76.31-1.37.23-1.82,0-.06-.03-.13-.06-.22-.03-.09-.09-.13-.18-.12-.12.03-.25.11-.38.26-.14.15-.32.32-.55.52-.24.2-.57.4-.98.59-.42.19-.96.35-1.63.48-1.42.22-2.6-.06-3.52-.82-.92-.76-1.51-1.83-1.76-3.2-.3-1.86.02-3.43.94-4.72.92-1.29,2.31-2.1,4.15-2.46,1.31-.21,2.46-.08,3.44.39.98.47,1.78,1.18,2.4,2.14.62.96,1.04,2.05,1.25,3.29.3,1.87.17,3.52-.38,4.95-.55,1.44-1.33,2.65-2.34,3.65-1.01,1-2.05,1.79-3.13,2.35-1.08.57-2.01.91-2.77,1.04h0Z"/>
    <path class="cls-2" d="M337.34,443.57c.2.7.5,1.36.93,2,.42.64.95,1.12,1.57,1.45.62.33,1.34.39,2.15.18.96-.3,1.61-.83,1.96-1.6.35-.77.4-1.61.15-2.53-.2-.72-.54-1.44-1.01-2.14-.47-.7-1.05-1.25-1.73-1.64-.69-.39-1.45-.47-2.3-.26-.74.22-1.26.57-1.56,1.05-.3.47-.45,1.02-.44,1.63,0,.61.11,1.23.29,1.86h0ZM339.81,455.9c-.11.04-.22.05-.35.05-.13,0-.22-.07-.27-.21-.06-.24.13-.48.58-.73.45-.25,1.08-.67,1.88-1.26.78-.64,1.39-1.38,1.84-2.23.45-.85.75-1.67.9-2.45.15-.78.16-1.4.04-1.84-.01-.06-.04-.13-.08-.21-.04-.08-.11-.12-.19-.1-.11.04-.23.14-.36.3-.12.16-.29.35-.49.57-.22.23-.52.46-.91.69-.39.24-.92.45-1.58.65-1.39.36-2.59.21-3.58-.45-1-.66-1.69-1.66-2.08-3-.49-1.82-.34-3.42.44-4.79.78-1.38,2.07-2.33,3.87-2.88,1.29-.35,2.44-.34,3.46.02,1.03.37,1.9.99,2.61,1.88.71.88,1.24,1.93,1.59,3.14.49,1.83.54,3.48.14,4.97-.4,1.48-1.04,2.78-1.94,3.88-.9,1.1-1.85,1.99-2.87,2.67-1.02.68-1.9,1.12-2.65,1.33h0Z"/>
    <path class="cls-1" d="M325.65,450.19l-.02-.09c-1.21-.33-2.09-.71-2.63-1.12-.72-.55-1.15-1.26-1.3-2.14-.22-1.27.15-2.42,1.11-3.44.96-1.01,2.36-1.68,4.19-2,1.65-.29,3.01-.2,4.07.28s1.67,1.19,1.84,2.16c.13.74,0,1.46-.4,2.17-.4.71-1.23,1.52-2.49,2.44l.02.1c1.89.37,3.17.81,3.85,1.32.68.51,1.09,1.22,1.25,2.14.25,1.46-.21,2.84-1.39,4.14-1.18,1.3-2.75,2.12-4.71,2.46-1.73.3-3.21.14-4.43-.49-1.22-.63-1.94-1.55-2.15-2.78-.33-1.9.74-3.62,3.2-5.16ZM328.85,448.36c.85-.6,1.43-1.2,1.75-1.8.32-.61.41-1.26.29-1.96-.16-.91-.6-1.57-1.32-1.97s-1.62-.52-2.69-.33c-1.07.19-1.89.57-2.45,1.17-.56.59-.78,1.27-.64,2.04.13.74.51,1.31,1.14,1.72.63.41,1.94.79,3.92,1.14ZM326.9,450.32c-.95.68-1.6,1.3-1.93,1.87-.48.82-.64,1.71-.47,2.66.19,1.09.73,1.89,1.63,2.4.9.51,1.97.66,3.21.44,1.29-.22,2.28-.72,2.97-1.5.69-.78.94-1.67.77-2.69-.16-.93-.65-1.6-1.46-1.99-.81-.4-2.38-.79-4.71-1.2Z"/>
  </g>
  <g id="banderole_oben_copy" data-name="banderole oben copy">
    <rect class="cls-3" x="144.01" y="111.08" width="2" height="18.46" transform="translate(-4.19 5.24) rotate(-2.04)"/>
    <g>
      <path class="cls-7" d="M145.29,129.77c-.12-.4-.36-.77-.71-1.09-7.75-7.1-15.93-.8-22.83,1.15-11.29,3.19-16.35-3.09-16.4-3.43l.91-34.66c-6.19-1.08-22.76-3.45-40.29-1.79-20.77,1.97-35.96,18.63-35.96,18.63,0,0,12.65-.85,16.65-.1,9.62,1.81,16.95,4.87,16.95,4.87,0,0-9.37,3.02-17.31,9.22-9.72,7.57-13.97,21.85-12.52,19.27,1.46-2.58,19.18-8.73,31.09-9.67,19.92-1.57,27.96,3.6,47.71,8.48,18.29,4.52,34.26-5.85,32.72-10.89"/>
      <path class="cls-3" d="M33.53,143.14s-.09,0-.13,0l-.66-.08-.21-.68c-.37-1.32,4.45-13.83,13.14-20.6,5.55-4.33,11.7-7.1,15.07-8.44-2.92-1.04-8.14-2.73-14.27-3.88-3.83-.72-16.27.1-16.4.11l-2.48.17,1.67-1.84c.63-.69,15.69-16.97,36.61-18.95,17.63-1.67,34.23.71,40.55,1.8l.85.15-.92,35.2c.76.87,5.42,5.5,15.12,2.76,1.5-.42,3.06-1.06,4.72-1.73,5.9-2.4,12.58-5.12,19.06.81.48.44.82.96.99,1.54h0c.48,1.56-.24,3.46-2.01,5.33-4.37,4.61-16.89,10.54-31.91,6.82-5.33-1.32-9.88-2.68-13.9-3.88-11.1-3.32-19.12-5.71-33.49-4.58-11.98.94-29.17,7.16-30.3,9.16-.13.23-.46.82-1.1.82ZM71.86,130.88c10.57,0,17.78,2.15,27.14,4.95,3.99,1.19,8.52,2.55,13.81,3.85,13.44,3.32,25.62-1.66,29.97-6.26,1.24-1.31,1.8-2.54,1.55-3.37h0c-.07-.24-.21-.45-.43-.65-5.54-5.08-11.35-2.71-16.96-.43-1.71.7-3.32,1.35-4.93,1.8-7.32,2.06-12.14.37-14.9-1.42-1.26-.81-2.65-2.08-2.76-2.82v-.08s-.01-.09-.01-.09l.88-33.79c-6.79-1.13-22.53-3.21-39.17-1.64-16.05,1.52-28.87,12.16-33.48,16.49,3.97-.21,11.29-.48,14.25.07,9.61,1.81,16.84,4.81,17.15,4.93l2.49,1.04-2.57.83c-.09.03-9.3,3.05-17.01,9.05-5.99,4.67-9.86,11.99-11.51,16,5.86-3.29,20.16-7.45,29.39-8.18,2.54-.2,4.89-.29,7.09-.29Z"/>
    </g>
    <g>
      <path class="cls-7" d="M452.7,113.14c-.12-1.57-2.74-1.94-9.23-.02-6.16,1.82-15.77,4.83-27.6,7.99l.02.28.56,15.33v-.11c.12-.26.34-.53.68-.81,1.54-1.03,8.02-3.46,12.98-5.19,9.21-3.2,22.88-13.73,22.59-17.46"/>
      <path class="cls-3" d="M417.35,137.03l-.68-.32-1.22.04-.63-16.39.8-.21c9.08-2.43,17-4.81,22.77-6.55,1.77-.53,3.38-1.02,4.8-1.44,6.67-1.97,8.65-1.36,9.56-.74.57.39.9.96.95,1.64h0c.31,3.91-12.34,14.69-23.26,18.48-5.12,1.78-11.24,4.1-12.71,5.05-.26.23-.35.38-.38.44ZM416.91,121.87l.46,12.64c3.14-1.61,11.39-4.49,12.41-4.85,9.7-3.37,22.13-13.74,21.92-16.44h0c0-.07-.02-.1-.09-.15-.31-.21-1.8-.78-7.86,1.01-1.42.42-3.02.9-4.79,1.43-5.62,1.69-13.27,3.99-22.05,6.35Z"/>
    </g>
    <path class="cls-2" d="M121.59,81.31c-.22-1.19-.32-2.17,1.34-2.48,2.27-.42,3.57.89,3.94,2.87.43,2.32-1.16,3.73-3.35,4.14-.34.06-.71.13-1.06.17l-.87-4.69h0ZM122.68,87.21c1.98-.37,2.29.01,3.22,1.04l4.56,5.37c1.01,1.18,1.33,1.58,1.91,1.47.53-.1,1.19-.36,1.85-.48,1.05-.2,2.13-.29,3.19-.45l-.17-.9c-.01-.08-.08-.12-.19-.13-1.42.26-2.38-.35-3.31-1.38l-3.45-3.78c-.89-.98-1.93-2.01-3.15-2.58,2.09-.77,3.93-2.31,3.5-4.63-.65-3.5-4.41-3.79-6.1-3.48-2.2.46-1.29.24-4.22.92-2,.37-3.95.6-5.14.82-.13.02-.17.11-.14.27l.12.63c.02.11.09.18.19.16l.84-.16c1.21-.22,1.59.47,2.08,3.13l1.88,10.17c.45,2.45.31,2.83-1.64,3.33-.26.07-.27.3-.25.43l.09.5c.03.16.09.17.38.12.92-.17,3.32-.75,4.43-.96,1.05-.2,2.13-.26,3.19-.46.16-.03.29-.08.25-.26l-.12-.63c-.02-.13-.09-.2-.25-.17-1.19.22-2.11-.04-2.52-2.26l-1.05-5.67h0Z"/>
    <path class="cls-3" d="M142.45,78c-.1-1.63.45-1.93,2.02-2.03.24-.01.37-.05.36-.24l-.04-.62c-.01-.19-.07-.24-.26-.23-1.23.08-2.03.26-3.34.34-1.28.08-3.4.07-4.63.15-.21.01-.34.1-.33.29l.04.61c0,.16.2.18.33.17,1.5-.09,2.17-.05,2.26,1.45l.64,10.46c.3,4.97,4.04,5.98,8.48,5.71,2.06-.13,4.24-.96,5.73-2.39,1.75-1.69,1.84-3.68,1.7-6.01l-.48-7.92c-.11-1.76-.04-2.41,1.97-2.54.35-.02.37-.08.35-.4l-.03-.51c0-.16-.12-.18-.25-.17-.96.06-1.76.24-3.42.34-1.1.07-1.85-.02-2.68.03-.13,0-.23.12-.23.26l.03.54c.01.19.21.28.42.27,1.55-.1,2.1.11,2.21,1.82l.54,8.91c.24,3.96-1.94,5.54-5.74,5.78-2.92.18-4.86-.83-5.05-4.04l-.61-10.03h0Z"/>
    <path class="cls-3" d="M171.61,74.49c-5.93-.47-11.61,3.04-12.09,9.18-.53,6.76,4.56,10.06,10.6,10.54,2.3.18,5.02-.2,7.16-1.1.06-1.1.04-2.23.14-3.48.18-2.35.31-2.64,2.02-2.5.21.02.24-.33.25-.46,0-.46-.06-.6-.38-.62-1.12-.09-2.54-.12-3.8-.22-1.2-.09-2.42-.27-3.63-.37-.4-.03-.81,0-.84.44-.04.54.14.58.94.64,2.11.17,2.58.66,2.41,2.82-.23,2.99-1.98,3.69-4.66,3.48-4.83-.38-6.45-5.83-6.25-8.37.45-5.74,3.24-9.02,7.96-8.65,3.55.28,4.77,2.29,5.43,4.08.18.47.23.55.31.56l.67.05c.16.01.27,0,.28-.14.03-.32,0-2.45-.01-3.6-1.88-1.33-4.24-2.11-6.51-2.29h0Z"/>
    <path class="cls-2" d="M188.2,81.07c.27-1.45.41-2.38,2.21-2.04,2.11.39,2.8,1.53,2.39,3.71-.63,3.43-2.89,3.39-5.43,2.84l.83-4.51h0ZM182.34,93.12c-.2,1.05-1.03,1.14-1.9.98-.32-.06-.55-.1-.59.11l-.13.69c-.03.16.15.19.31.22.63.12,1.68.18,3.58.53,1.45.27,3.16.72,4.9,1.05,3.35.62,7-.28,7.7-4.08.65-3.5-2.41-4.92-5.01-5.92v-.05c2.02.02,4.86-.27,5.43-3.38.62-3.35-2.79-4.82-5.5-5.32-1.26-.23-2.55-.34-3.82-.57-1.24-.23-2.45-.59-3.67-.82-.29-.05-.53-.07-.58.17l-.1.55c-.02.13.04.25.22.29,1.34.25,1.91.6,1.62,2.15l-2.49,13.41h0ZM187.15,86.76c2.9.54,6.01,1.11,5.23,5.3-.46,2.5-1.55,3.83-4.24,3.33-2.11-.39-2.3-1.54-1.96-3.39l.97-5.24h0Z"/>
    <path class="cls-3" d="M205.02,96.95c-.29,1.55-1.82,1.27-2.45,1.15-.16-.03-.3,0-.34.21l-.11.58c-.03.16.06.23.22.26,1.21.22,2.32.29,3.79.57,1.61.3,2.85.67,4.17.91.16.03.27,0,.31-.19l.09-.5c.04-.19,0-.33-.15-.36-.84-.16-2.29-.59-2.04-1.91l1.11-5.98c.04-.24.25-.45.75-.98l3.43-3.67c.47-.49.94-.97,1.41-1.43.83-.8,1.96-1.87,3.01-1.68.26.05.38-.01.42-.2l.1-.53c.04-.24-.03-.28-.16-.3-.42-.08-1.34-.11-2.87-.4-1.03-.19-1.9-.49-2.5-.6-.18-.04-.26.09-.29.25l-.08.42c-.03.18.02.36.25.4.84.16,1.68.34,1.6.79-.07.37-.57,1.01-1.31,1.77l-3.86,4.08-2.53-5.76c-.39-.84-.62-1.48-.58-1.71.06-.34.81-.26,1.84-.07.24.04.35,0,.39-.2l.11-.61c.02-.13-.07-.2-.36-.26-.71-.13-1.9-.21-3.21-.46-1.74-.32-2.98-.69-4.43-.96-.29-.05-.42.06-.44.19l-.08.45c-.04.21.07.37.28.4,1.27.24,1.73,1.11,2.38,2.6l3.12,7.28c.13.32.11.56.08.75l-1.05,5.66h0Z"/>
    <path class="cls-3" d="M231.52,88.47c.3-1.61.9-1.77,2.46-1.48.24.04.37.04.41-.14l.11-.61c.03-.18,0-.25-.19-.28-1.21-.22-2.03-.24-3.32-.48-1.27-.23-3.32-.75-4.54-.98-.21-.04-.36.02-.39.2l-.11.61c-.03.16.15.22.28.24,1.47.27,2.12.47,1.85,1.95l-1.91,10.3c-.91,4.9,2.48,6.78,6.85,7.59,2.03.38,4.34.1,6.14-.93,2.11-1.22,2.68-3.13,3.1-5.42l1.45-7.8c.32-1.74.54-2.35,2.52-1.99.34.06.38.02.44-.3l.09-.5c.03-.16-.07-.2-.2-.23-.95-.18-1.76-.19-3.4-.49-1.08-.2-1.79-.47-2.61-.62-.13-.02-.26.06-.28.19l-.1.53c-.04.18.13.32.34.36,1.53.28,2.01.62,1.7,2.3l-1.62,8.77c-.72,3.9-3.23,4.91-6.97,4.21-2.87-.53-4.51-1.98-3.92-5.14l1.83-9.88h0Z"/>
    <path class="cls-3" d="M254.61,90.26c-.13-.21-.21-.66-.56-.72-1.16-.2-2.22-.24-3.38-.43-.9-.15-1.77-.43-2.73-.59-.21-.04-.31.08-.33.22l-.09.55c-.02.13.07.26.22.28,2.67.45,2.97.74,2.25,5.05l-1.55,9.25c-.44,2.64-1.36,2.6-2.92,2.34-.18-.03-.29.09-.31.25l-.07.45c-.04.21.05.34.42.4,1.24.21,2.51.28,3.51.45.98.16,1.4.37,2.51.56.29.05.41.01.44-.17l.1-.58c.04-.24-.17-.27-.44-.32-1.61-.27-2.09-.51-1.62-3.31l1.6-9.57c.03-.16.15-1.2.33-1.17.16.03.32.35.6.81l8.62,14.21c.34.55.66,1.09,1.29,2.01.34.38.45.43,1.4.59.24.04.27,0,.3-.17.14-.85.38-2.44.72-4.45l1.69-10.12c.39-2.68.88-3.14,2.21-2.97.71.12.94.07.97-.11l.09-.53c.04-.24-.09-.29-.27-.32-.71-.12-1.42-.1-2.53-.29-.87-.15-2.07-.48-3.41-.71-.24-.04-.41-.01-.45.22l-.08.45c-.04.26.21.36.45.4,1.85.31,1.88.94,1.6,2.63l-1.36,8.14c-.1.61-.36,1.81-.44,1.8-.08-.01-.16-.16-.29-.4l-4.58-7.53c-.79-1.27-1.53-2.54-2.27-3.8l-1.65-2.8h0Z"/>
    <path class="cls-3" d="M271.26,108.65c-.21,1.43-1.05,1.55-2.29,1.37-.27-.04-.38.02-.4.16l-.1.69c-.02.11.08.18.16.19,1.38.21,2.8.28,4.18.49,1.25.19,2.47.51,3.72.69.21.03.35,0,.39-.24l.08-.53c.02-.16-.04-.25-.26-.28-1.33-.2-2.17-.51-1.95-2l1.99-13.33c.18-1.19.93-1.49,2.15-1.3.29.04.53.05.55-.08l.11-.74c.02-.13-.11-.18-.32-.21-.66-.1-2.25-.2-4.05-.47-1.83-.27-3.35-.63-3.72-.69-.19-.03-.23.08-.25.23l-.09.61c-.02.13.16.21.37.25,1.27.19,1.94.45,1.72,1.88l-1.99,13.33h0Z"/>
    <path class="cls-2" d="M280.33,103.61c-.66,5.83,3.52,10.08,8.95,10.7,6.18.7,11.71-2.6,12.44-8.99.64-5.64-3.86-9.93-9.66-10.59-5.8-.66-11.04,2.87-11.72,8.88h0ZM284.32,102.94c.49-4.31,2.42-7.46,7.21-6.92,5.3.6,6.66,5.94,6.13,10.54-.45,3.91-3.06,7.01-7.27,6.53-4.71-.54-6.54-6.08-6.07-10.16h0Z"/>
    <path class="cls-3" d="M311.3,97.89c-.14-.2-.27-.64-.62-.67-1.18-.09-2.23-.04-3.4-.13-.91-.07-1.8-.28-2.77-.35-.21-.02-.3.11-.31.24l-.05.56c0,.13.09.25.25.26,2.7.21,3.03.48,2.68,4.84l-.73,9.35c-.21,2.67-1.13,2.71-2.7,2.58-.19-.01-.28.11-.29.27l-.04.45c-.02.21.08.33.46.36,1.25.1,2.52.06,3.54.14.99.08,1.43.25,2.55.34.29.02.4-.02.42-.21l.04-.59c.02-.24-.19-.26-.46-.28-1.63-.13-2.12-.33-1.9-3.16l.76-9.67c.01-.16.04-1.21.23-1.19.16.01.35.32.67.75l9.83,13.41c.39.52.75,1.03,1.46,1.89.38.35.48.39,1.44.46.24.02.27-.03.29-.19.07-.86.17-2.46.33-4.49l.81-10.23c.16-2.7.6-3.2,1.94-3.15.72.06.94,0,.96-.2l.04-.53c.02-.24-.11-.28-.3-.29-.72-.06-1.43.02-2.55-.07-.88-.07-2.1-.3-3.46-.41-.24-.02-.41.02-.42.26l-.04.45c-.02.27.24.34.48.36,1.87.15,1.96.77,1.82,2.48l-.65,8.23c-.05.62-.2,1.84-.28,1.83-.08,0-.18-.15-.32-.38l-5.22-7.1c-.9-1.2-1.75-2.39-2.59-3.59l-1.89-2.65h0Z"/>
    <path class="cls-2" d="M339.52,101.1c-.11-1.85,1.49-2,3.04-2.09,5-.3,7.76,3.58,8.05,8.26.27,4.33-2.15,8.35-6.72,8.63-2.01.12-3.49-.35-3.6-2.2l-.77-12.6h0ZM336.75,114.16c.11,1.85-.5,2.34-1.97,2.43-.21.01-.34.15-.33.37l.03.51c.01.21.17.21.47.19.72-.04,2.13-.26,3.2-.33,1.12-.07,3.46-.08,5.76-.22,5.7-.35,10.96-3.81,10.58-10.12-.46-7.57-6.62-9.5-13.2-9.1-1.29.08-6.78.71-7.65,1.27-.1.09-.15.2-.14.38v.19c.03.29.17.42.68.39l.7-.04c.75-.04,1.04.26,1.16,2.35l.72,11.74h0Z"/>
    <path class="cls-2" d="M356.66,106.94c.77,5.82,5.85,8.93,11.27,8.22,6.16-.81,10.73-5.36,9.89-11.74-.74-5.63-6.15-8.71-11.94-7.94-5.79.76-10.01,5.45-9.22,11.46h0ZM360.37,105.31c-.57-4.3.54-7.83,5.32-8.46,5.29-.7,7.9,4.15,8.5,8.75.51,3.91-1.28,7.55-5.47,8.1-4.7.62-7.81-4.32-8.35-8.39h0Z"/>
    <path class="cls-3" d="M384.79,93.62c-.2-.15-.44-.54-.78-.47-1.15.24-2.15.58-3.31.81-.89.18-1.81.23-2.76.42-.21.04-.26.19-.23.32l.11.55c.03.13.15.21.31.18,2.65-.54,3.04-.37,3.91,3.91l1.87,9.19c.54,2.63-.34,2.91-1.89,3.23-.18.04-.24.19-.2.34l.09.45c.04.21.17.29.54.22,1.23-.25,2.44-.63,3.44-.84.97-.2,1.45-.16,2.55-.38.29-.06.38-.13.35-.32l-.12-.58c-.05-.24-.26-.19-.52-.14-1.6.32-2.13.27-2.7-2.51l-1.94-9.51c-.03-.16-.29-1.17-.11-1.21.16-.03.43.21.85.54l13.15,10.18c.52.39,1.01.78,1.93,1.41.46.24.57.24,1.51.05.24-.05.25-.11.22-.26-.17-.84-.52-2.41-.92-4.41l-2.04-10.06c-.59-2.64-.3-3.25,1-3.57.71-.14.9-.27.87-.45l-.11-.53c-.05-.24-.19-.24-.37-.2-.71.14-1.36.41-2.47.64-.87.18-2.1.29-3.44.56-.24.05-.38.13-.34.37l.09.45c.05.26.33.26.56.21,1.84-.38,2.09.2,2.44,1.88l1.64,8.09c.12.61.32,1.82.24,1.84-.08.02-.21-.09-.41-.27l-6.97-5.39c-1.2-.91-2.34-1.82-3.48-2.74l-2.54-2.03h0Z"/>
    <path class="cls-2" d="M408.89,98.07l.33-6.43h.05s4.09,5.19,4.09,5.19l-4.47,1.24h0ZM414.29,97.96c.8,1.06,3.17,3.92,3.34,4.52.15.55-.03,1.1-1.37,1.47-.18.05-.33.12-.25.4l.17.59c.03.1.14.1.24.07,1.16-.32,2.47-.82,3.94-1.23,1.14-.31,2.67-.6,3.39-.8.31-.09.25-.29.22-.4l-.11-.41c-.05-.18-.13-.16-.89-.09-1.01.06-1.26-.13-2.53-1.79l-10.36-13.5c-.12-.13-.29-.45-.42-.41-.1.03-.38.44-.82.95-.75.9-.88,1.16-.9,1.67-.02,1.14-.04,1.96-.09,2.69l-.52,8.77c-.13,1.54-.26,3.09-.42,4.61-.13,1.24-.73,1.68-1.74,1.96-.21.06-.29.25-.24.43l.13.46c.04.16.19.17.26.15.49-.14,1.18-.47,2.83-.92,1.03-.29,1.95-.4,2.8-.64.34-.09.46-.16.41-.34l-.14-.52c-.04-.15-.11-.3-.37-.23-1.27.35-1.97.32-2.21-.53-.14-.49-.08-1.4-.01-2.34l.19-3.01c.06-.1.16-.13.29-.16l5.16-1.43h0Z"/>
    <path class="cls-3" d="M426.03,85.2c-.62-1.51-.21-1.97,1.25-2.58.22-.09.34-.17.27-.34l-.24-.57c-.07-.17-.14-.2-.31-.13-1.14.47-1.83.9-3.04,1.41-1.19.49-3.2,1.18-4.34,1.65-.2.08-.29.21-.22.38l.24.57c.06.15.24.1.37.05,1.38-.57,2.04-.76,2.61.63l4.01,9.68c1.91,4.61,5.77,4.34,9.88,2.64,1.91-.79,3.69-2.28,4.64-4.13,1.1-2.17.54-4.08-.35-6.24l-3.04-7.33c-.68-1.63-.82-2.27,1.03-3.04.32-.13.33-.19.2-.49l-.19-.47c-.06-.15-.17-.13-.29-.08-.89.37-1.58.8-3.12,1.44-1.02.42-1.76.58-2.53.9-.12.05-.18.19-.13.32l.21.49c.07.17.29.2.48.12,1.44-.6,2.02-.58,2.68,1.01l3.41,8.24c1.52,3.66-.03,5.87-3.55,7.33-2.7,1.12-4.86.79-6.09-2.18l-3.85-9.28h0Z"/>
    <g>
      <path class="cls-7" d="M145.29,129.77c-.12-.4-.36-.77-.71-1.09-7.75-7.1-15.93-.8-22.83,1.15-11.29,3.19-16.35-3.09-16.4-3.43-.25-1.73-.1-7.23,10.99-10.15,6.22-1.64,15.59-4.05,28.34-5.16h0l.6,18.68"/>
      <path class="cls-3" d="M115.64,131.73c-3.86,0-6.66-1.16-8.52-2.37-1.26-.81-2.65-2.08-2.76-2.82-.27-1.85-.21-8.12,11.73-11.26,5.61-1.48,14.9-3.92,27.56-5.1v-.09s1.03,0,1.03,0l.04,1,.96-.03.6,18.68-1.96.32c-.07-.24-.21-.45-.43-.65-5.54-5.08-11.35-2.72-16.96-.43-1.71.7-3.32,1.35-4.93,1.8-2.39.67-4.51.95-6.38.95ZM106.31,126.05c.61.72,5.27,5.6,15.16,2.81,1.5-.42,3.06-1.06,4.72-1.73,5.58-2.27,11.86-4.83,18.01-.08l-.48-14.87c-12.44,1.17-21.59,3.58-27.12,5.03-9.9,2.6-10.44,7.19-10.28,8.84Z"/>
    </g>
    <rect class="cls-3" x="144.01" y="111.08" width="2" height="18.46" transform="translate(-4.19 5.24) rotate(-2.04)"/>
    <g>
      <path class="cls-7" d="M452.7,113.14c.29,3.73-13.38,14.26-22.59,17.46-4.96,1.73-11.44,4.16-12.98,5.19-2.74,2.3,2.22,3.73,5.81,3.68,10.61-.15,42.45-6.36,67.27-20.51,28.01-15.97,36.07-40.83,36.07-40.83,0,0-11.1,6.02-15.05,6.99-9.49,2.35-15.68,1.85-15.68,1.85,0,0,5.42-5.86,9.95-14.77,5.55-10.89,3.26-25.6,3.05-22.66-.21,2.94-14.21,14.22-24.52,20.15-10.83,6.22-20.02,9.12-31.29,11.02"/>
      <path class="cls-3" d="M422.8,140.47c-1.9,0-6.51-.47-7.35-2.72-.2-.53-.33-1.59,1.03-2.73l.09-.07c2.16-1.44,12.08-4.91,13.21-5.3,9.7-3.37,22.13-13.74,21.92-16.44l1.99-.16c.31,3.91-12.34,14.69-23.26,18.48-5.12,1.78-11.24,4.1-12.71,5.05-.36.31-.39.48-.39.48.16.49,2.61,1.45,5.59,1.39,10.75-.15,42.39-6.47,66.79-20.37,22.21-12.66,31.8-31.19,34.65-37.81-3.52,1.84-9.98,5.09-12.88,5.81-9.54,2.36-15.75,1.9-16.01,1.88l-2.05-.17,1.39-1.51c.05-.06,5.38-5.88,9.79-14.55,3.47-6.82,3.79-15.21,3.53-19.46-1.42,1.77-3.9,4.11-7.43,6.99-5.15,4.2-11.2,8.42-16.18,11.29-10.17,5.85-19.33,9.07-31.62,11.14l-.33-1.97c12.04-2.02,21.01-5.18,30.96-10.9,11.46-6.59,23.87-17.32,24.02-19.35.02-.28.07-1.03.77-1.26l.64-.21.48.53c.9,1.05,1.91,14.38-3.04,24.12-3.19,6.27-6.77,11-8.7,13.36,2.53-.04,7.25-.36,13.3-1.86,3.78-.94,14.7-6.84,14.81-6.9l2.2-1.19-.77,2.38c-.08.25-8.51,25.41-36.53,41.39-24.71,14.09-56.82,20.48-67.75,20.64-.05,0-.1,0-.15,0Z"/>
    </g>
    <g>
      <path class="cls-7" d="M144.68,111.09c-12.75,1.11-22.12,3.52-28.34,5.16-11.09,2.92-11.24,8.42-10.99,10.15l1.35-55.3s-.81-6.99,12.47-10.49c13.27-3.49,40.85-10.5,84.99-.89,44.15,9.61,104.31,20.2,145.45,17.78,41.14-2.42,80.72-14.96,96.69-20.01,7.18-2.27,6.8,37.36,6.8,37.36l-.4,18.3c-.12-1.57-2.74-1.94-9.23-.02-16.06,4.74-55.54,17.59-96.69,20.01-41.14,2.42-101.3-8.17-145.45-17.78-23.45-5.1-42.21-5.52-56.65-4.27"/>
      <path class="cls-3" d="M334.12,134.48c-40.58,0-93.74-9.61-133-18.15-19.92-4.34-38.88-5.77-56.35-4.25h0c-12.98,1.13-22.49,3.63-28.17,5.13-7.81,2.06-9.79,5.35-10.21,7.45l-.04,1.76c-.01.52-.42.94-.94.97-.52.04-.98-.34-1.05-.85-.07-.46-.11-1.19.04-2.07l1.3-53.34c-.06-.9-.12-7.98,13.21-11.48,12.13-3.19,40.55-10.68,85.46-.9,43.39,9.45,103.79,20.19,145.18,17.76,40.95-2.41,79.78-14.7,96.36-19.94.99-.31,1.89-.16,2.68.43,5.66,4.19,5.54,34.44,5.51,37.87l-.4,18.31c-.01.53-.44.96-.97.98,0,0-.02,0-.03,0-.52,0-.96-.4-1-.92,0-.07-.02-.1-.09-.15-.31-.21-1.8-.78-7.86,1.01-1.42.42-3.02.9-4.79,1.43-17.69,5.32-54.5,16.4-92.12,18.62-4.07.24-8.33.35-12.73.35ZM158.58,109.5c13.65,0,28.05,1.63,42.97,4.88,43.39,9.45,103.79,20.19,145.18,17.76,37.39-2.2,74.04-13.23,91.66-18.54,1.77-.53,3.38-1.02,4.8-1.44,4.92-1.45,7.29-1.5,8.56-1.18l.35-16.16c.12-12.57-1.05-33.54-4.7-36.23-.27-.2-.51-.25-.81-.15-16.73,5.29-55.73,17.63-96.93,20.06-41.62,2.45-102.21-8.33-145.72-17.8-44.44-9.68-72.53-2.28-84.53.88-12.15,3.2-11.75,9.17-11.73,9.42,0,.04,0,.09,0,.13l-1.2,49.19c1.68-1.86,4.6-3.72,9.59-5.03,5.75-1.51,15.36-4.05,28.51-5.19h0c4.56-.4,9.23-.59,13.98-.59Z"/>
    </g>
    <g>
      <path class="cls-7" d="M145.29,129.77c-.12-.4-.36-.77-.71-1.09-7.75-7.1-15.93-.8-22.83,1.15-11.29,3.19-16.35-3.09-16.4-3.43l.91-34.66c-6.19-1.08-22.76-3.45-40.29-1.79-20.77,1.97-35.96,18.63-35.96,18.63,0,0,12.65-.85,16.65-.1,9.62,1.81,16.95,4.87,16.95,4.87,0,0-9.37,3.02-17.31,9.22-9.72,7.57-13.97,21.85-12.52,19.27,1.46-2.58,19.18-8.73,31.09-9.67,19.92-1.57,27.96,3.6,47.71,8.48,18.29,4.52,34.26-5.85,32.72-10.89"/>
      <path class="cls-3" d="M33.53,143.14s-.09,0-.13,0l-.66-.08-.21-.68c-.37-1.32,4.45-13.83,13.14-20.6,5.55-4.33,11.7-7.1,15.07-8.44-2.92-1.04-8.14-2.73-14.27-3.88-3.83-.72-16.27.1-16.4.11l-2.48.17,1.67-1.84c.63-.69,15.69-16.97,36.61-18.95,17.63-1.67,34.23.71,40.55,1.8l.85.15-.92,35.2c.76.87,5.42,5.5,15.12,2.76,1.5-.42,3.06-1.06,4.72-1.73,5.9-2.4,12.58-5.12,19.06.81.48.44.82.96.99,1.54h0c.48,1.56-.24,3.46-2.01,5.33-4.37,4.61-16.89,10.54-31.91,6.82-5.33-1.32-9.88-2.68-13.9-3.88-11.1-3.32-19.12-5.71-33.49-4.58-11.98.94-29.17,7.16-30.3,9.16-.13.23-.46.82-1.1.82ZM71.86,130.88c10.57,0,17.78,2.15,27.14,4.95,3.99,1.19,8.52,2.55,13.81,3.85,13.44,3.32,25.62-1.66,29.97-6.26,1.24-1.31,1.8-2.54,1.55-3.37h0c-.07-.24-.21-.45-.43-.65-5.54-5.08-11.35-2.71-16.96-.43-1.71.7-3.32,1.35-4.93,1.8-7.32,2.06-12.14.37-14.9-1.42-1.26-.81-2.65-2.08-2.76-2.82v-.08s-.01-.09-.01-.09l.88-33.79c-6.79-1.13-22.53-3.21-39.17-1.64-16.05,1.52-28.87,12.16-33.48,16.49,3.97-.21,11.29-.48,14.25.07,9.61,1.81,16.84,4.81,17.15,4.93l2.49,1.04-2.57.83c-.09.03-9.3,3.05-17.01,9.05-5.99,4.67-9.86,11.99-11.51,16,5.86-3.29,20.16-7.45,29.39-8.18,2.54-.2,4.89-.29,7.09-.29Z"/>
    </g>
    <rect class="cls-3" x="415.17" y="121.01" width="2" height="15.71" transform="translate(-4.32 14.88) rotate(-2.04)"/>
    <path class="cls-2" d="M121.59,81.31c-.22-1.19-.32-2.17,1.34-2.48,2.27-.42,3.57.89,3.94,2.87.43,2.32-1.16,3.73-3.35,4.14-.34.06-.71.13-1.06.17l-.87-4.69h0ZM122.68,87.21c1.98-.37,2.29.01,3.22,1.04l4.56,5.37c1.01,1.18,1.33,1.58,1.91,1.47.53-.1,1.19-.36,1.85-.48,1.05-.2,2.13-.29,3.19-.45l-.17-.9c-.01-.08-.08-.12-.19-.13-1.42.26-2.38-.35-3.31-1.38l-3.45-3.78c-.89-.98-1.93-2.01-3.15-2.58,2.09-.77,3.93-2.31,3.5-4.63-.65-3.5-4.41-3.79-6.1-3.48-2.2.46-1.29.24-4.22.92-2,.37-3.95.6-5.14.82-.13.02-.17.11-.14.27l.12.63c.02.11.09.18.19.16l.84-.16c1.21-.22,1.59.47,2.08,3.13l1.88,10.17c.45,2.45.31,2.83-1.64,3.33-.26.07-.27.3-.25.43l.09.5c.03.16.09.17.38.12.92-.17,3.32-.75,4.43-.96,1.05-.2,2.13-.26,3.19-.46.16-.03.29-.08.25-.26l-.12-.63c-.02-.13-.09-.2-.25-.17-1.19.22-2.11-.04-2.52-2.26l-1.05-5.67h0Z"/>
    <path class="cls-3" d="M142.45,78c-.1-1.63.45-1.93,2.02-2.03.24-.01.37-.05.36-.24l-.04-.62c-.01-.19-.07-.24-.26-.23-1.23.08-2.03.26-3.34.34-1.28.08-3.4.07-4.63.15-.21.01-.34.1-.33.29l.04.61c0,.16.2.18.33.17,1.5-.09,2.17-.05,2.26,1.45l.64,10.46c.3,4.97,4.04,5.98,8.48,5.71,2.06-.13,4.24-.96,5.73-2.39,1.75-1.69,1.84-3.68,1.7-6.01l-.48-7.92c-.11-1.76-.04-2.41,1.97-2.54.35-.02.37-.08.35-.4l-.03-.51c0-.16-.12-.18-.25-.17-.96.06-1.76.24-3.42.34-1.1.07-1.85-.02-2.68.03-.13,0-.23.12-.23.26l.03.54c.01.19.21.28.42.27,1.55-.1,2.1.11,2.21,1.82l.54,8.91c.24,3.96-1.94,5.54-5.74,5.78-2.92.18-4.86-.83-5.05-4.04l-.61-10.03h0Z"/>
    <path class="cls-3" d="M171.61,74.49c-5.93-.47-11.61,3.04-12.09,9.18-.53,6.76,4.56,10.06,10.6,10.54,2.3.18,5.02-.2,7.16-1.1.06-1.1.04-2.23.14-3.48.18-2.35.31-2.64,2.02-2.5.21.02.24-.33.25-.46,0-.46-.06-.6-.38-.62-1.12-.09-2.54-.12-3.8-.22-1.2-.09-2.42-.27-3.63-.37-.4-.03-.81,0-.84.44-.04.54.14.58.94.64,2.11.17,2.58.66,2.41,2.82-.23,2.99-1.98,3.69-4.66,3.48-4.83-.38-6.45-5.83-6.25-8.37.45-5.74,3.24-9.02,7.96-8.65,3.55.28,4.77,2.29,5.43,4.08.18.47.23.55.31.56l.67.05c.16.01.27,0,.28-.14.03-.32,0-2.45-.01-3.6-1.88-1.33-4.24-2.11-6.51-2.29h0Z"/>
    <path class="cls-2" d="M188.2,81.07c.27-1.45.41-2.38,2.21-2.04,2.11.39,2.8,1.53,2.39,3.71-.63,3.43-2.89,3.39-5.43,2.84l.83-4.51h0ZM182.34,93.12c-.2,1.05-1.03,1.14-1.9.98-.32-.06-.55-.1-.59.11l-.13.69c-.03.16.15.19.31.22.63.12,1.68.18,3.58.53,1.45.27,3.16.72,4.9,1.05,3.35.62,7-.28,7.7-4.08.65-3.5-2.41-4.92-5.01-5.92v-.05c2.02.02,4.86-.27,5.43-3.38.62-3.35-2.79-4.82-5.5-5.32-1.26-.23-2.55-.34-3.82-.57-1.24-.23-2.45-.59-3.67-.82-.29-.05-.53-.07-.58.17l-.1.55c-.02.13.04.25.22.29,1.34.25,1.91.6,1.62,2.15l-2.49,13.41h0ZM187.15,86.76c2.9.54,6.01,1.11,5.23,5.3-.46,2.5-1.55,3.83-4.24,3.33-2.11-.39-2.3-1.54-1.96-3.39l.97-5.24h0Z"/>
    <path class="cls-3" d="M205.02,96.95c-.29,1.55-1.82,1.27-2.45,1.15-.16-.03-.3,0-.34.21l-.11.58c-.03.16.06.23.22.26,1.21.22,2.32.29,3.79.57,1.61.3,2.85.67,4.17.91.16.03.27,0,.31-.19l.09-.5c.04-.19,0-.33-.15-.36-.84-.16-2.29-.59-2.04-1.91l1.11-5.98c.04-.24.25-.45.75-.98l3.43-3.67c.47-.49.94-.97,1.41-1.43.83-.8,1.96-1.87,3.01-1.68.26.05.38-.01.42-.2l.1-.53c.04-.24-.03-.28-.16-.3-.42-.08-1.34-.11-2.87-.4-1.03-.19-1.9-.49-2.5-.6-.18-.04-.26.09-.29.25l-.08.42c-.03.18.02.36.25.4.84.16,1.68.34,1.6.79-.07.37-.57,1.01-1.31,1.77l-3.86,4.08-2.53-5.76c-.39-.84-.62-1.48-.58-1.71.06-.34.81-.26,1.84-.07.24.04.35,0,.39-.2l.11-.61c.02-.13-.07-.2-.36-.26-.71-.13-1.9-.21-3.21-.46-1.74-.32-2.98-.69-4.43-.96-.29-.05-.42.06-.44.19l-.08.45c-.04.21.07.37.28.4,1.27.24,1.73,1.11,2.38,2.6l3.12,7.28c.13.32.11.56.08.75l-1.05,5.66h0Z"/>
    <path class="cls-3" d="M231.52,88.47c.3-1.61.9-1.77,2.46-1.48.24.04.37.04.41-.14l.11-.61c.03-.18,0-.25-.19-.28-1.21-.22-2.03-.24-3.32-.48-1.27-.23-3.32-.75-4.54-.98-.21-.04-.36.02-.39.2l-.11.61c-.03.16.15.22.28.24,1.47.27,2.12.47,1.85,1.95l-1.91,10.3c-.91,4.9,2.48,6.78,6.85,7.59,2.03.38,4.34.1,6.14-.93,2.11-1.22,2.68-3.13,3.1-5.42l1.45-7.8c.32-1.74.54-2.35,2.52-1.99.34.06.38.02.44-.3l.09-.5c.03-.16-.07-.2-.2-.23-.95-.18-1.76-.19-3.4-.49-1.08-.2-1.79-.47-2.61-.62-.13-.02-.26.06-.28.19l-.1.53c-.04.18.13.32.34.36,1.53.28,2.01.62,1.7,2.3l-1.62,8.77c-.72,3.9-3.23,4.91-6.97,4.21-2.87-.53-4.51-1.98-3.92-5.14l1.83-9.88h0Z"/>
    <path class="cls-3" d="M254.61,90.26c-.13-.21-.21-.66-.56-.72-1.16-.2-2.22-.24-3.38-.43-.9-.15-1.77-.43-2.73-.59-.21-.04-.31.08-.33.22l-.09.55c-.02.13.07.26.22.28,2.67.45,2.97.74,2.25,5.05l-1.55,9.25c-.44,2.64-1.36,2.6-2.92,2.34-.18-.03-.29.09-.31.25l-.07.45c-.04.21.05.34.42.4,1.24.21,2.51.28,3.51.45.98.16,1.4.37,2.51.56.29.05.41.01.44-.17l.1-.58c.04-.24-.17-.27-.44-.32-1.61-.27-2.09-.51-1.62-3.31l1.6-9.57c.03-.16.15-1.2.33-1.17.16.03.32.35.6.81l8.62,14.21c.34.55.66,1.09,1.29,2.01.34.38.45.43,1.4.59.24.04.27,0,.3-.17.14-.85.38-2.44.72-4.45l1.69-10.12c.39-2.68.88-3.14,2.21-2.97.71.12.94.07.97-.11l.09-.53c.04-.24-.09-.29-.27-.32-.71-.12-1.42-.1-2.53-.29-.87-.15-2.07-.48-3.41-.71-.24-.04-.41-.01-.45.22l-.08.45c-.04.26.21.36.45.4,1.85.31,1.88.94,1.6,2.63l-1.36,8.14c-.1.61-.36,1.81-.44,1.8-.08-.01-.16-.16-.29-.4l-4.58-7.53c-.79-1.27-1.53-2.54-2.27-3.8l-1.65-2.8h0Z"/>
    <path class="cls-3" d="M271.26,108.65c-.21,1.43-1.05,1.55-2.29,1.37-.27-.04-.38.02-.4.16l-.1.69c-.02.11.08.18.16.19,1.38.21,2.8.28,4.18.49,1.25.19,2.47.51,3.72.69.21.03.35,0,.39-.24l.08-.53c.02-.16-.04-.25-.26-.28-1.33-.2-2.17-.51-1.95-2l1.99-13.33c.18-1.19.93-1.49,2.15-1.3.29.04.53.05.55-.08l.11-.74c.02-.13-.11-.18-.32-.21-.66-.1-2.25-.2-4.05-.47-1.83-.27-3.35-.63-3.72-.69-.19-.03-.23.08-.25.23l-.09.61c-.02.13.16.21.37.25,1.27.19,1.94.45,1.72,1.88l-1.99,13.33h0Z"/>
    <path class="cls-2" d="M280.33,103.61c-.66,5.83,3.52,10.08,8.95,10.7,6.18.7,11.71-2.6,12.44-8.99.64-5.64-3.86-9.93-9.66-10.59-5.8-.66-11.04,2.87-11.72,8.88h0ZM284.32,102.94c.49-4.31,2.42-7.46,7.21-6.92,5.3.6,6.66,5.94,6.13,10.54-.45,3.91-3.06,7.01-7.27,6.53-4.71-.54-6.54-6.08-6.07-10.16h0Z"/>
    <path class="cls-3" d="M311.3,97.89c-.14-.2-.27-.64-.62-.67-1.18-.09-2.23-.04-3.4-.13-.91-.07-1.8-.28-2.77-.35-.21-.02-.3.11-.31.24l-.05.56c0,.13.09.25.25.26,2.7.21,3.03.48,2.68,4.84l-.73,9.35c-.21,2.67-1.13,2.71-2.7,2.58-.19-.01-.28.11-.29.27l-.04.45c-.02.21.08.33.46.36,1.25.1,2.52.06,3.54.14.99.08,1.43.25,2.55.34.29.02.4-.02.42-.21l.04-.59c.02-.24-.19-.26-.46-.28-1.63-.13-2.12-.33-1.9-3.16l.76-9.67c.01-.16.04-1.21.23-1.19.16.01.35.32.67.75l9.83,13.41c.39.52.75,1.03,1.46,1.89.38.35.48.39,1.44.46.24.02.27-.03.29-.19.07-.86.17-2.46.33-4.49l.81-10.23c.16-2.7.6-3.2,1.94-3.15.72.06.94,0,.96-.2l.04-.53c.02-.24-.11-.28-.3-.29-.72-.06-1.43.02-2.55-.07-.88-.07-2.1-.3-3.46-.41-.24-.02-.41.02-.42.26l-.04.45c-.02.27.24.34.48.36,1.87.15,1.96.77,1.82,2.48l-.65,8.23c-.05.62-.2,1.84-.28,1.83-.08,0-.18-.15-.32-.38l-5.22-7.1c-.9-1.2-1.75-2.39-2.59-3.59l-1.89-2.65h0Z"/>
    <path class="cls-2" d="M339.52,101.1c-.11-1.85,1.49-2,3.04-2.09,5-.3,7.76,3.58,8.05,8.26.27,4.33-2.15,8.35-6.72,8.63-2.01.12-3.49-.35-3.6-2.2l-.77-12.6h0ZM336.75,114.16c.11,1.85-.5,2.34-1.97,2.43-.21.01-.34.15-.33.37l.03.51c.01.21.17.21.47.19.72-.04,2.13-.26,3.2-.33,1.12-.07,3.46-.08,5.76-.22,5.7-.35,10.96-3.81,10.58-10.12-.46-7.57-6.62-9.5-13.2-9.1-1.29.08-6.78.71-7.65,1.27-.1.09-.15.2-.14.38v.19c.03.29.17.42.68.39l.7-.04c.75-.04,1.04.26,1.16,2.35l.72,11.74h0Z"/>
    <path class="cls-2" d="M356.66,106.94c.77,5.82,5.85,8.93,11.27,8.22,6.16-.81,10.73-5.36,9.89-11.74-.74-5.63-6.15-8.71-11.94-7.94-5.79.76-10.01,5.45-9.22,11.46h0ZM360.37,105.31c-.57-4.3.54-7.83,5.32-8.46,5.29-.7,7.9,4.15,8.5,8.75.51,3.91-1.28,7.55-5.47,8.1-4.7.62-7.81-4.32-8.35-8.39h0Z"/>
    <path class="cls-3" d="M384.79,93.62c-.2-.15-.44-.54-.78-.47-1.15.24-2.15.58-3.31.81-.89.18-1.81.23-2.76.42-.21.04-.26.19-.23.32l.11.55c.03.13.15.21.31.18,2.65-.54,3.04-.37,3.91,3.91l1.87,9.19c.54,2.63-.34,2.91-1.89,3.23-.18.04-.24.19-.2.34l.09.45c.04.21.17.29.54.22,1.23-.25,2.44-.63,3.44-.84.97-.2,1.45-.16,2.55-.38.29-.06.38-.13.35-.32l-.12-.58c-.05-.24-.26-.19-.52-.14-1.6.32-2.13.27-2.7-2.51l-1.94-9.51c-.03-.16-.29-1.17-.11-1.21.16-.03.43.21.85.54l13.15,10.18c.52.39,1.01.78,1.93,1.41.46.24.57.24,1.51.05.24-.05.25-.11.22-.26-.17-.84-.52-2.41-.92-4.41l-2.04-10.06c-.59-2.64-.3-3.25,1-3.57.71-.14.9-.27.87-.45l-.11-.53c-.05-.24-.19-.24-.37-.2-.71.14-1.36.41-2.47.64-.87.18-2.1.29-3.44.56-.24.05-.38.13-.34.37l.09.45c.05.26.33.26.56.21,1.84-.38,2.09.2,2.44,1.88l1.64,8.09c.12.61.32,1.82.24,1.84-.08.02-.21-.09-.41-.27l-6.97-5.39c-1.2-.91-2.34-1.82-3.48-2.74l-2.54-2.03h0Z"/>
    <path class="cls-2" d="M408.89,98.07l.33-6.43h.05s4.09,5.19,4.09,5.19l-4.47,1.24h0ZM414.29,97.96c.8,1.06,3.17,3.92,3.34,4.52.15.55-.03,1.1-1.37,1.47-.18.05-.33.12-.25.4l.17.59c.03.1.14.1.24.07,1.16-.32,2.47-.82,3.94-1.23,1.14-.31,2.67-.6,3.39-.8.31-.09.25-.29.22-.4l-.11-.41c-.05-.18-.13-.16-.89-.09-1.01.06-1.26-.13-2.53-1.79l-10.36-13.5c-.12-.13-.29-.45-.42-.41-.1.03-.38.44-.82.95-.75.9-.88,1.16-.9,1.67-.02,1.14-.04,1.96-.09,2.69l-.52,8.77c-.13,1.54-.26,3.09-.42,4.61-.13,1.24-.73,1.68-1.74,1.96-.21.06-.29.25-.24.43l.13.46c.04.16.19.17.26.15.49-.14,1.18-.47,2.83-.92,1.03-.29,1.95-.4,2.8-.64.34-.09.46-.16.41-.34l-.14-.52c-.04-.15-.11-.3-.37-.23-1.27.35-1.97.32-2.21-.53-.14-.49-.08-1.4-.01-2.34l.19-3.01c.06-.1.16-.13.29-.16l5.16-1.43h0Z"/>
    <path class="cls-3" d="M426.03,85.2c-.62-1.51-.21-1.97,1.25-2.58.22-.09.34-.17.27-.34l-.24-.57c-.07-.17-.14-.2-.31-.13-1.14.47-1.83.9-3.04,1.41-1.19.49-3.2,1.18-4.34,1.65-.2.08-.29.21-.22.38l.24.57c.06.15.24.1.37.05,1.38-.57,2.04-.76,2.61.63l4.01,9.68c1.91,4.61,5.77,4.34,9.88,2.64,1.91-.79,3.69-2.28,4.64-4.13,1.1-2.17.54-4.08-.35-6.24l-3.04-7.33c-.68-1.63-.82-2.27,1.03-3.04.32-.13.33-.19.2-.49l-.19-.47c-.06-.15-.17-.13-.29-.08-.89.37-1.58.8-3.12,1.44-1.02.42-1.76.58-2.53.9-.12.05-.18.19-.13.32l.21.49c.07.17.29.2.48.12,1.44-.6,2.02-.58,2.68,1.01l3.41,8.24c1.52,3.66-.03,5.87-3.55,7.33-2.7,1.12-4.86.79-6.09-2.18l-3.85-9.28h0Z"/>
    <g>
      <path class="cls-7" d="M145.29,129.77c-.12-.4-.36-.77-.71-1.09-7.75-7.1-15.93-.8-22.83,1.15-11.29,3.19-16.35-3.09-16.4-3.43-.25-1.73-.1-7.23,10.99-10.15,6.22-1.64,15.59-4.05,28.34-5.16h0l.6,18.68"/>
      <path class="cls-3" d="M115.64,131.73c-3.86,0-6.66-1.16-8.52-2.37-1.26-.81-2.65-2.08-2.76-2.82-.27-1.85-.21-8.12,11.73-11.26,5.61-1.48,14.9-3.92,27.56-5.1v-.09s1.03,0,1.03,0l.04,1,.96-.03.6,18.68-1.96.32c-.07-.24-.21-.45-.43-.65-5.54-5.08-11.35-2.72-16.96-.43-1.71.7-3.32,1.35-4.93,1.8-2.39.67-4.51.95-6.38.95ZM106.31,126.05c.61.72,5.27,5.6,15.16,2.81,1.5-.42,3.06-1.06,4.72-1.73,5.58-2.27,11.86-4.83,18.01-.08l-.48-14.87c-12.44,1.17-21.59,3.58-27.12,5.03-9.9,2.6-10.44,7.19-10.28,8.84Z"/>
    </g>
  </g>
</svg>